<svg width="341" height="122" viewBox="0 0 341 122" fill="none" xmlns="http://www.w3.org/2000/svg">
<path d="M82.33 57.46L87.02 62.25H62.02V64.53H86.99L82.33 69.2L83.94 70.81L91.41 63.34L83.94 55.85L82.33 57.46Z" fill="#218FCF"/>
<path d="M188.96 63.34L181.49 55.85L179.88 57.46L184.57 62.25H159.57V64.53H184.54L179.88 69.2L181.49 70.81L188.96 63.34Z" fill="#218FCF"/>
<path d="M277.05 45.09H263.55V80.59H277.05" stroke="#7E8C93" stroke-width="0.75" stroke-miterlimit="10" stroke-dasharray="2 1"/>
<path d="M231.69 63.09H263.55" stroke="#7E8C93" stroke-width="0.75" stroke-miterlimit="10" stroke-dasharray="2 1"/>
<path d="M263.88 56.64H278.05" stroke="#7E8C93" stroke-width="0.75" stroke-miterlimit="10" stroke-dasharray="2 1"/>
<path d="M263.88 68.7599H278.05" stroke="#7E8C93" stroke-width="0.75" stroke-miterlimit="10" stroke-dasharray="2 1"/>
<path d="M23.65 36.38V37.54H26.13V38.34H23.65V39.59H26.39V40.39H22.77V35.58H26.39V36.38H23.65Z" fill="#495565"/>
<path d="M30.0599 36.87C30.2628 36.9893 30.4289 37.1623 30.5399 37.37C30.6546 37.5925 30.713 37.8397 30.7099 38.09V40.39H29.8799V38.26C29.8886 38.0375 29.8137 37.8199 29.6699 37.65C29.6 37.5746 29.5147 37.5151 29.4198 37.4754C29.3249 37.4357 29.2227 37.4168 29.1199 37.42C28.8899 37.4129 28.6654 37.4912 28.4899 37.64C28.4101 37.7096 28.3464 37.7958 28.3032 37.8925C28.2601 37.9892 28.2385 38.0941 28.2399 38.2V40.39H27.3899V36.77H28.2399V37.26C28.3556 37.0862 28.514 36.945 28.6999 36.85C28.9025 36.7409 29.1298 36.6858 29.3599 36.69C29.6051 36.6867 29.8467 36.7489 30.0599 36.87Z" fill="#495565"/>
<path d="M35.2999 35.5V40.39H34.4399V39.82C34.3042 40.0228 34.1227 40.1907 33.9099 40.31C33.6866 40.4225 33.4399 40.4807 33.1899 40.48C32.8844 40.4862 32.5844 40.399 32.3299 40.23C32.074 40.0667 31.8695 39.8345 31.7399 39.56C31.5886 39.2483 31.51 38.9064 31.51 38.56C31.51 38.2136 31.5886 37.8717 31.7399 37.56C31.8721 37.2873 32.0761 37.0557 32.3299 36.89C32.5873 36.7285 32.886 36.6451 33.1899 36.65C33.4399 36.6493 33.6866 36.7075 33.9099 36.82C34.1201 36.9385 34.3012 37.1025 34.4399 37.3V35.5H35.2999ZM34.1499 39.42C34.3316 39.1777 34.4299 38.8829 34.4299 38.58C34.4299 38.2771 34.3316 37.9823 34.1499 37.74C34.0555 37.6382 33.941 37.5572 33.8136 37.5021C33.6862 37.447 33.5487 37.4191 33.4099 37.42C33.2694 37.4177 33.13 37.4449 33.0008 37.5001C32.8716 37.5552 32.7554 37.637 32.6599 37.74C32.4717 37.9796 32.3695 38.2754 32.3695 38.58C32.3695 38.8846 32.4717 39.1804 32.6599 39.42C32.7545 39.5248 32.8703 39.6085 32.9995 39.6653C33.1288 39.7222 33.2687 39.7511 33.4099 39.75C33.55 39.7537 33.6892 39.7259 33.8173 39.6688C33.9453 39.6117 34.059 39.5267 34.1499 39.42Z" fill="#495565"/>
<path d="M39.45 40.2C39.1322 40.024 38.8718 39.7601 38.7 39.44C38.5129 39.1037 38.4165 38.7247 38.42 38.34V35.58H39.3V38.31C39.2938 38.5562 39.3488 38.8002 39.46 39.02C39.5626 39.2181 39.714 39.3868 39.9 39.51C40.0919 39.6295 40.3139 39.692 40.54 39.69C40.7696 39.6945 40.9955 39.6319 41.19 39.51C41.3815 39.3903 41.537 39.2209 41.64 39.02C41.7468 38.7986 41.8016 38.5557 41.8 38.31V35.58H42.67V38.34C42.6771 38.7239 42.584 39.103 42.4 39.44C42.2275 39.7629 41.963 40.0274 41.64 40.2C41.3043 40.3838 40.9277 40.4801 40.545 40.4801C40.1623 40.4801 39.7857 40.3838 39.45 40.2Z" fill="#495565"/>
<path d="M44.23 40.33C43.9591 40.2448 43.7053 40.1128 43.48 39.94L43.84 39.38C44.0291 39.5177 44.2382 39.6256 44.46 39.7C44.6581 39.7756 44.8679 39.8162 45.08 39.82C45.2374 39.8268 45.3935 39.7886 45.53 39.71C45.5812 39.6782 45.6235 39.6341 45.6532 39.5817C45.6829 39.5293 45.699 39.4702 45.7 39.41C45.7029 39.3465 45.6862 39.2838 45.6522 39.2301C45.6182 39.1764 45.5686 39.1345 45.51 39.11C45.3238 39.0243 45.1295 38.9573 44.93 38.91C44.6879 38.847 44.4506 38.7668 44.22 38.67C44.0527 38.6001 43.9075 38.486 43.8 38.34C43.694 38.188 43.6412 38.0051 43.65 37.82C43.6455 37.6138 43.7048 37.4112 43.82 37.24C43.9356 37.0586 44.1027 36.9158 44.3 36.83C44.5247 36.7357 44.7663 36.6881 45.01 36.69C45.2549 36.6909 45.498 36.7314 45.73 36.81C45.9656 36.8844 46.1908 36.9885 46.4 37.12L46.06 37.7C45.8929 37.5923 45.7153 37.5018 45.53 37.43C45.3625 37.3726 45.187 37.3422 45.01 37.34C44.8686 37.3354 44.7291 37.3738 44.61 37.45C44.5589 37.4795 44.5164 37.5217 44.4866 37.5725C44.4568 37.6234 44.4408 37.6811 44.44 37.74C44.4397 37.7754 44.4466 37.8106 44.4603 37.8433C44.4741 37.8759 44.4944 37.9055 44.52 37.93C44.5861 37.9821 44.6604 38.0226 44.74 38.05L45.21 38.21C45.4348 38.2681 45.6553 38.3416 45.87 38.43C46.0383 38.5076 46.1883 38.6201 46.31 38.76C46.4347 38.9232 46.4983 39.1248 46.49 39.33C46.4959 39.4894 46.4636 39.6479 46.3957 39.7923C46.3279 39.9367 46.2265 40.0628 46.1 40.16C45.8114 40.3747 45.4596 40.4873 45.1 40.48C44.8033 40.4824 44.5087 40.4316 44.23 40.33Z" fill="#495565"/>
<path d="M49.5 39.6899C49.6703 39.6277 49.8266 39.5326 49.96 39.4099L50.45 39.9199C50.2652 40.0992 50.0433 40.2358 49.8 40.3199C49.538 40.4202 49.2606 40.4744 48.98 40.4799C48.6306 40.4854 48.2858 40.3992 47.98 40.2299C47.6922 40.0706 47.4536 39.8354 47.29 39.5499C47.1254 39.2531 47.0391 38.9193 47.0391 38.5799C47.0391 38.2406 47.1254 37.9067 47.29 37.6099C47.4489 37.3277 47.6802 37.093 47.96 36.9299C48.2475 36.7704 48.5713 36.6877 48.9 36.6899C49.1475 36.6777 49.3945 36.7228 49.6217 36.8217C49.8489 36.9206 50.0503 37.0705 50.21 37.2599C50.5423 37.7138 50.7082 38.2682 50.68 38.8299H47.9C47.9387 39.0969 48.0654 39.3433 48.26 39.5299C48.4485 39.7013 48.6953 39.7943 48.95 39.7899C49.138 39.7909 49.3245 39.757 49.5 39.6899ZM48.27 37.6199C48.0809 37.7863 47.954 38.0119 47.91 38.2599H49.91C49.881 38.02 49.7759 37.7957 49.61 37.6199C49.5248 37.5393 49.4242 37.4765 49.3143 37.4353C49.2044 37.394 49.0873 37.3752 48.97 37.3799C48.7146 37.3675 48.4641 37.4534 48.27 37.6199Z" fill="#495565"/>
<path d="M52.91 36.9C53.1453 36.7585 53.4155 36.6858 53.69 36.69V37.42C53.349 37.4026 53.0138 37.5131 52.75 37.73C52.6346 37.8365 52.5436 37.9667 52.4832 38.1117C52.4228 38.2567 52.3944 38.413 52.4 38.57V40.39H51.54V36.77H52.4V37.46C52.5086 37.2254 52.6866 37.0299 52.91 36.9Z" fill="#495565"/>
<path d="M55 40.33C54.7291 40.2448 54.4753 40.1128 54.25 39.94L54.62 39.38C54.8079 39.5197 55.0173 39.6278 55.24 39.7C55.4345 39.7763 55.6411 39.8169 55.85 39.82C56.0107 39.8281 56.1704 39.79 56.31 39.71C56.36 39.6777 56.4009 39.6332 56.4289 39.5807C56.4569 39.5282 56.471 39.4695 56.47 39.41C56.4724 39.3479 56.4566 39.2865 56.4246 39.2332C56.3927 39.1799 56.3459 39.1371 56.29 39.11C56.1025 39.0275 55.9085 38.9606 55.71 38.91C55.4643 38.8484 55.2236 38.7681 54.99 38.67C54.8227 38.6001 54.6775 38.486 54.57 38.34C54.464 38.188 54.4113 38.0051 54.42 37.82C54.4155 37.6138 54.4749 37.4112 54.59 37.24C54.7105 37.0629 54.8763 36.9214 55.07 36.83C55.2947 36.7357 55.5363 36.6881 55.78 36.69C56.0249 36.6909 56.268 36.7314 56.5 36.81C56.7364 36.8824 56.9618 36.9867 57.17 37.12L56.83 37.7C56.664 37.5904 56.4862 37.4998 56.3 37.43C56.1327 37.372 55.9571 37.3416 55.78 37.34C55.6388 37.3366 55.4997 37.3749 55.38 37.45C55.3301 37.4799 55.2891 37.5225 55.261 37.5735C55.2329 37.6244 55.2187 37.6818 55.22 37.74C55.2178 37.7748 55.2228 37.8097 55.2349 37.8424C55.247 37.8751 55.2657 37.905 55.29 37.93C55.3574 37.98 55.4315 38.0203 55.51 38.05L55.99 38.21C56.2139 38.2712 56.4342 38.3446 56.65 38.43C56.8154 38.5078 56.9621 38.6203 57.08 38.76C57.2047 38.9232 57.2683 39.1248 57.26 39.33C57.2659 39.4894 57.2336 39.6479 57.1658 39.7923C57.0979 39.9367 56.9965 40.0628 56.87 40.16C56.5825 40.3768 56.23 40.4896 55.87 40.48C55.5734 40.4824 55.2787 40.4316 55 40.33Z" fill="#495565"/>
<path d="M196.33 39.59V40.39H193V35.58H193.87V39.58L196.33 39.59Z" fill="#495565"/>
<path d="M197.83 40.22C197.536 40.0575 197.291 39.8193 197.12 39.53C196.95 39.2421 196.861 38.9141 196.861 38.58C196.861 38.2458 196.95 37.9178 197.12 37.63C197.294 37.3458 197.538 37.1115 197.83 36.95C198.131 36.769 198.478 36.6788 198.83 36.69C199.181 36.6776 199.529 36.768 199.83 36.95C200.119 37.114 200.363 37.3478 200.54 37.63C200.704 37.9198 200.79 38.247 200.79 38.58C200.79 38.9129 200.704 39.2402 200.54 39.53C200.365 39.8158 200.121 40.0531 199.83 40.22C199.527 40.3973 199.181 40.4873 198.83 40.48C198.479 40.4858 198.133 40.3959 197.83 40.22ZM199.35 39.59C199.519 39.4851 199.658 39.3366 199.75 39.16C199.848 38.9824 199.899 38.7828 199.899 38.58C199.899 38.3771 199.848 38.1775 199.75 38C199.661 37.8235 199.522 37.6774 199.35 37.58C199.187 37.4724 198.995 37.4151 198.8 37.4151C198.604 37.4151 198.413 37.4724 198.25 37.58C198.081 37.6809 197.942 37.8261 197.85 38C197.752 38.1775 197.7 38.3771 197.7 38.58C197.7 38.7828 197.752 38.9824 197.85 39.16C197.942 39.3366 198.08 39.4851 198.25 39.59C198.413 39.6975 198.604 39.7548 198.8 39.7548C198.995 39.7548 199.187 39.6975 199.35 39.59Z" fill="#495565"/>
<path d="M204.18 37.11C204.32 37.2575 204.429 37.432 204.499 37.6229C204.57 37.8137 204.6 38.0168 204.59 38.22V40.39H203.76V40C203.62 40.1605 203.446 40.287 203.25 40.37C203.045 40.4656 202.821 40.5152 202.595 40.5152C202.369 40.5152 202.145 40.4656 201.94 40.37C201.744 40.286 201.578 40.1465 201.46 39.9688C201.343 39.7911 201.28 39.5829 201.28 39.37C201.276 39.1468 201.346 38.9285 201.48 38.75C201.616 38.563 201.799 38.4148 202.01 38.32C202.243 38.2176 202.495 38.1665 202.75 38.17C203.092 38.1739 203.43 38.2382 203.75 38.36V38.27C203.757 38.0508 203.682 37.8368 203.54 37.67C203.449 37.5888 203.343 37.5266 203.228 37.4871C203.113 37.4476 202.991 37.4316 202.87 37.44C202.52 37.4506 202.178 37.5431 201.87 37.71L201.57 37.12C202.016 36.8875 202.508 36.7577 203.01 36.74C203.22 36.7182 203.432 36.7398 203.633 36.8034C203.835 36.8671 204.021 36.9714 204.18 37.11ZM203.42 39.69C203.504 39.6469 203.578 39.5861 203.637 39.512C203.695 39.4378 203.737 39.3518 203.76 39.26V38.85C203.476 38.7573 203.179 38.7101 202.88 38.71C202.68 38.7049 202.483 38.7645 202.32 38.88C202.252 38.9247 202.197 38.9856 202.158 39.0572C202.12 39.1288 202.1 39.2088 202.1 39.29C202.098 39.3693 202.116 39.4478 202.15 39.5191C202.185 39.5904 202.237 39.6524 202.3 39.7C202.45 39.8032 202.628 39.8558 202.81 39.85C203.024 39.853 203.235 39.7977 203.42 39.69Z" fill="#495565"/>
<path d="M209.18 35.5V40.39H208.32V39.82C208.184 40.0228 208.003 40.1907 207.79 40.31C207.567 40.4225 207.32 40.4807 207.07 40.48C206.765 40.4849 206.465 40.3978 206.21 40.23C205.954 40.0667 205.75 39.8345 205.62 39.56C205.469 39.2483 205.39 38.9064 205.39 38.56C205.39 38.2136 205.469 37.8717 205.62 37.56C205.752 37.2873 205.956 37.0557 206.21 36.89C206.446 36.7461 206.715 36.6642 206.991 36.652C207.267 36.6397 207.542 36.6975 207.79 36.82C208 36.9385 208.181 37.1025 208.32 37.3V35.5H209.18ZM208 39.42C208.188 39.1804 208.29 38.8846 208.29 38.58C208.29 38.2754 208.188 37.9796 208 37.74C207.906 37.6382 207.791 37.5572 207.664 37.5021C207.536 37.447 207.399 37.4191 207.26 37.42C207.12 37.4177 206.98 37.4449 206.851 37.5001C206.722 37.5552 206.606 37.637 206.51 37.74C206.322 37.9796 206.22 38.2754 206.22 38.58C206.22 38.8846 206.322 39.1804 206.51 39.42C206.605 39.5248 206.72 39.6085 206.85 39.6653C206.979 39.7222 207.119 39.7511 207.26 39.75C207.4 39.7537 207.539 39.7259 207.667 39.6688C207.795 39.6117 207.909 39.5267 208 39.42Z" fill="#495565"/>
<path d="M212.42 35.5799H214.78C215.036 35.5737 215.289 35.6286 215.52 35.7399C215.724 35.8324 215.898 35.9816 216.02 36.1699C216.141 36.354 216.203 36.5699 216.2 36.7899C216.202 37.0136 216.139 37.233 216.018 37.4213C215.897 37.6096 215.724 37.7585 215.52 37.8499C215.776 37.9674 215.999 38.146 216.17 38.3699C216.318 38.5771 216.399 38.8252 216.4 39.0799C216.407 39.3221 216.337 39.5603 216.2 39.7599C216.067 39.9611 215.88 40.1205 215.66 40.2199C215.414 40.3393 215.143 40.3976 214.87 40.3899H212.42V35.5799ZM214.57 37.5799C214.761 37.5852 214.948 37.5252 215.1 37.4099C215.163 37.3564 215.214 37.2898 215.249 37.2147C215.284 37.1396 215.302 37.0577 215.302 36.9749C215.302 36.8921 215.284 36.8103 215.249 36.7352C215.214 36.6601 215.163 36.5935 215.1 36.5399C214.948 36.4247 214.761 36.3647 214.57 36.3699H213.29V37.5799H214.57ZM214.7 39.6699C214.911 39.6759 215.117 39.6048 215.28 39.4699C215.352 39.411 215.41 39.336 215.448 39.2509C215.486 39.1659 215.504 39.0731 215.5 38.9799C215.503 38.8869 215.485 38.7944 215.447 38.7094C215.409 38.6245 215.352 38.5494 215.28 38.4899C215.117 38.3551 214.911 38.284 214.7 38.2899H213.29V39.6699H214.7Z" fill="#495565"/>
<path d="M220 37.11C220.14 37.2575 220.249 37.432 220.319 37.6229C220.39 37.8137 220.421 38.0168 220.41 38.22V40.39H219.58V40C219.442 40.158 219.272 40.2843 219.08 40.37C218.882 40.459 218.667 40.5066 218.45 40.51C218.211 40.5148 217.975 40.4635 217.76 40.36C217.564 40.276 217.398 40.1365 217.28 39.9588C217.163 39.7811 217.1 39.5729 217.1 39.36C217.096 39.1368 217.166 38.9185 217.3 38.74C217.436 38.553 217.619 38.4048 217.83 38.31C218.063 38.2076 218.315 38.1565 218.57 38.16C218.912 38.1639 219.251 38.2282 219.57 38.35V38.26C219.577 38.0408 219.502 37.8268 219.36 37.66C219.269 37.5788 219.163 37.5166 219.048 37.4771C218.933 37.4376 218.811 37.4216 218.69 37.43C218.34 37.4406 217.998 37.5331 217.69 37.7L217.39 37.11C217.839 36.8761 218.334 36.7462 218.84 36.73C219.049 36.7103 219.26 36.7339 219.46 36.7993C219.659 36.8647 219.843 36.9704 220 37.11ZM219.24 39.69C219.324 39.6469 219.398 39.5861 219.457 39.512C219.515 39.4378 219.557 39.3518 219.58 39.26V38.85C219.296 38.7573 218.999 38.7101 218.7 38.71C218.5 38.7049 218.304 38.7645 218.14 38.88C218.072 38.9247 218.017 38.9856 217.978 39.0572C217.94 39.1288 217.92 39.2088 217.92 39.29C217.918 39.3693 217.936 39.4478 217.971 39.5191C218.005 39.5904 218.057 39.6524 218.12 39.7C218.27 39.8032 218.448 39.8558 218.63 39.85C218.827 39.8451 219.02 39.7901 219.19 39.69H219.24Z" fill="#495565"/>
<path d="M221.42 35.5H222.27V40.39H221.42V35.5Z" fill="#495565"/>
<path d="M226 37.11C226.14 37.2575 226.249 37.432 226.319 37.6229C226.39 37.8137 226.421 38.0168 226.41 38.22V40.39H225.58V40C225.442 40.158 225.272 40.2843 225.08 40.37C224.882 40.459 224.667 40.5066 224.45 40.51C224.211 40.5148 223.975 40.4635 223.76 40.36C223.564 40.276 223.398 40.1365 223.28 39.9588C223.163 39.7811 223.1 39.5729 223.1 39.36C223.096 39.1368 223.166 38.9185 223.3 38.74C223.436 38.553 223.619 38.4048 223.83 38.31C224.063 38.2076 224.315 38.1565 224.57 38.16C224.912 38.1639 225.251 38.2282 225.57 38.35V38.26C225.577 38.0408 225.502 37.8268 225.36 37.66C225.269 37.5788 225.163 37.5166 225.048 37.4771C224.933 37.4376 224.811 37.4216 224.69 37.43C224.34 37.4406 223.998 37.5331 223.69 37.7L223.39 37.11C223.839 36.8761 224.334 36.7462 224.84 36.73C225.049 36.7103 225.26 36.7339 225.46 36.7993C225.659 36.8647 225.843 36.9704 226 37.11ZM225.24 39.69C225.325 39.6486 225.4 39.5884 225.459 39.5139C225.518 39.4394 225.559 39.3526 225.58 39.26V38.85C225.296 38.7573 224.999 38.7101 224.7 38.71C224.503 38.7034 224.309 38.7633 224.15 38.88C224.084 38.9261 224.03 38.9874 223.993 39.0588C223.956 39.1302 223.936 39.2095 223.936 39.29C223.936 39.3705 223.956 39.4498 223.993 39.5212C224.03 39.5926 224.084 39.6539 224.15 39.7C224.303 39.8046 224.485 39.8572 224.67 39.85C224.867 39.8456 225.06 39.7905 225.23 39.69H225.24Z" fill="#495565"/>
<path d="M230.13 36.87C230.337 36.9839 230.505 37.1583 230.61 37.37C230.732 37.59 230.794 37.8383 230.79 38.09V40.39H230V38.26C230.009 38.0376 229.934 37.8199 229.79 37.65C229.722 37.5754 229.638 37.5163 229.545 37.4766C229.452 37.4369 229.351 37.4176 229.25 37.42C229.02 37.4109 228.795 37.4895 228.62 37.64C228.539 37.7091 228.474 37.7949 228.429 37.8916C228.384 37.9882 228.36 38.0934 228.36 38.2V40.39H227.51V36.77H228.36V37.26C228.48 37.0858 228.641 36.9448 228.83 36.85C229.038 36.7388 229.27 36.6807 229.505 36.6807C229.741 36.6807 229.972 36.7388 230.18 36.85L230.13 36.87Z" fill="#495565"/>
<path d="M232.54 40.22C232.25 40.048 232.006 39.8077 231.83 39.52C231.653 39.2382 231.56 38.9125 231.56 38.58C231.56 38.2475 231.653 37.9217 231.83 37.64C232.005 37.3541 232.249 37.1168 232.54 36.95C232.844 36.774 233.189 36.6841 233.54 36.69C233.799 36.6858 234.055 36.7405 234.29 36.85C234.523 36.9509 234.734 37.097 234.91 37.28L234.34 37.78C234.238 37.6662 234.112 37.5772 233.97 37.52C233.833 37.4535 233.682 37.4193 233.53 37.42C233.338 37.4205 233.151 37.476 232.99 37.58C232.818 37.6774 232.679 37.8235 232.59 38C232.492 38.1776 232.441 38.3771 232.441 38.58C232.441 38.7828 232.492 38.9824 232.59 39.16C232.677 39.3401 232.817 39.4899 232.99 39.59C233.151 39.6939 233.338 39.7495 233.53 39.75C233.685 39.7476 233.838 39.7136 233.98 39.65C234.124 39.5834 234.254 39.4881 234.36 39.37L234.93 39.87C234.751 40.0596 234.537 40.2124 234.3 40.32C234.057 40.4237 233.795 40.4781 233.53 40.48C233.183 40.4845 232.84 40.3946 232.54 40.22Z" fill="#495565"/>
<path d="M237.81 39.69C237.98 39.6278 238.137 39.5326 238.27 39.41L238.76 39.92C238.574 40.0971 238.352 40.2333 238.11 40.32C237.848 40.4193 237.57 40.4734 237.29 40.48C236.941 40.4855 236.596 40.3993 236.29 40.23C236.002 40.0706 235.764 39.8355 235.6 39.55C235.435 39.2532 235.349 38.9194 235.349 38.58C235.349 38.2406 235.435 37.9068 235.6 37.61C235.759 37.3278 235.99 37.093 236.27 36.93C236.558 36.7704 236.881 36.6878 237.21 36.69C237.456 36.6778 237.702 36.723 237.927 36.8219C238.153 36.9208 238.352 37.0708 238.51 37.26C238.85 37.7102 239.02 38.2664 238.99 38.83H236.18C236.215 39.0959 236.338 39.3423 236.53 39.53C236.721 39.7038 236.972 39.797 237.23 39.79C237.428 39.7948 237.625 39.7608 237.81 39.69ZM236.58 37.62C236.387 37.783 236.259 38.0103 236.22 38.26H238.22C238.191 38.0201 238.086 37.7958 237.92 37.62C237.835 37.5393 237.734 37.4765 237.624 37.4353C237.514 37.3941 237.397 37.3753 237.28 37.38C237.025 37.3675 236.774 37.4534 236.58 37.62Z" fill="#495565"/>
<path d="M241.22 36.9C241.455 36.7585 241.726 36.6858 242 36.69V37.42C241.659 37.4026 241.324 37.5131 241.06 37.73C240.941 37.8343 240.847 37.9639 240.785 38.1092C240.723 38.2546 240.694 38.412 240.7 38.57V40.39H239.85V36.77H240.7V37.46C240.812 37.2247 240.994 37.0294 241.22 36.9Z" fill="#495565"/>
<path d="M264.59 32H262.3L261.92 32.91H260.92L262.92 28.1H263.92L265.92 32.91H264.92L264.59 32ZM264.29 31.29L263.45 29.29L262.6 31.29H264.29Z" fill="#495565"/>
<path d="M269.68 29.4299C269.931 29.5985 270.135 29.8294 270.27 30.0999C270.414 30.4135 270.489 30.7547 270.489 31.0999C270.489 31.4452 270.414 31.7864 270.27 32.0999C270.137 32.3724 269.933 32.6039 269.68 32.7699C269.448 32.9182 269.181 33.0035 268.906 33.0175C268.63 33.0316 268.356 32.9738 268.11 32.8499C267.891 32.7407 267.704 32.5751 267.57 32.3699V34.0999H266.71V29.2699H267.57V29.8299C267.708 29.6303 267.893 29.4687 268.11 29.3599C268.329 29.2464 268.573 29.1881 268.82 29.1899C269.124 29.1862 269.422 29.2694 269.68 29.4299ZM269.34 31.9199C269.528 31.6804 269.63 31.3846 269.63 31.0799C269.63 30.7753 269.528 30.4795 269.34 30.2399C269.244 30.1369 269.128 30.0552 268.999 30C268.87 29.9449 268.73 29.9176 268.59 29.9199C268.452 29.9165 268.316 29.9434 268.189 29.9987C268.063 30.054 267.951 30.1364 267.86 30.2399C267.672 30.4795 267.57 30.7753 267.57 31.0799C267.57 31.3846 267.672 31.6804 267.86 31.9199C267.949 32.0264 268.061 32.1114 268.187 32.1686C268.314 32.2257 268.451 32.2535 268.59 32.2499C268.731 32.251 268.871 32.2222 269 32.1653C269.13 32.1084 269.245 32.0248 269.34 31.9199Z" fill="#495565"/>
<path d="M274.33 29.43C274.584 29.5956 274.788 29.8273 274.92 30.1C275.071 30.4116 275.15 30.7536 275.15 31.1C275.15 31.4464 275.071 31.7883 274.92 32.1C274.79 32.3745 274.586 32.6067 274.33 32.77C274.078 32.9376 273.782 33.0248 273.48 33.02C273.23 33.0207 272.983 32.9625 272.76 32.85C272.544 32.7351 272.359 32.5705 272.22 32.37V34.1H271.37V29.27H272.22V29.83C272.362 29.6348 272.547 29.4741 272.76 29.36C272.983 29.2475 273.23 29.1893 273.48 29.19C273.78 29.1864 274.076 29.2698 274.33 29.43ZM274 31.92C274.188 31.6804 274.29 31.3846 274.29 31.08C274.29 30.7754 274.188 30.4796 274 30.24C273.904 30.137 273.788 30.0552 273.659 30.0001C273.53 29.9449 273.39 29.9176 273.25 29.92C273.111 29.919 272.974 29.947 272.846 30.0021C272.719 30.0572 272.604 30.1382 272.51 30.24C272.322 30.4796 272.219 30.7754 272.219 31.08C272.219 31.3846 272.322 31.6804 272.51 31.92C272.601 32.0267 272.714 32.1117 272.842 32.1688C272.971 32.2259 273.11 32.2536 273.25 32.25C273.391 32.2511 273.531 32.2222 273.66 32.1653C273.789 32.1085 273.905 32.0248 274 31.92Z" fill="#495565"/>
<path d="M276 28H276.86V32.89H276V28Z" fill="#495565"/>
<path d="M278.09 28.58C278.001 28.4891 277.951 28.3672 277.95 28.24C277.95 28.1769 277.962 28.1144 277.986 28.056C278.01 27.9977 278.045 27.9447 278.09 27.9C278.135 27.8519 278.189 27.8138 278.249 27.7879C278.309 27.7621 278.374 27.7492 278.44 27.75C278.504 27.75 278.567 27.7633 278.626 27.7891C278.684 27.8149 278.737 27.8527 278.78 27.9C278.824 27.9447 278.86 27.9977 278.884 28.056C278.908 28.1144 278.92 28.1769 278.92 28.24C278.919 28.3672 278.869 28.4891 278.78 28.58C278.737 28.6272 278.684 28.665 278.626 28.6908C278.567 28.7167 278.504 28.73 278.44 28.73C278.374 28.7308 278.309 28.7178 278.249 28.692C278.189 28.6662 278.135 28.628 278.09 28.58ZM278.01 29.27H278.87V32.89H278L278.01 29.27Z" fill="#495565"/>
<path d="M280.7 32.7199C280.409 32.5434 280.168 32.2956 280 31.9999C279.823 31.7182 279.73 31.3924 279.73 31.0599C279.73 30.7274 279.823 30.4017 280 30.1199C280.171 29.8306 280.416 29.5924 280.71 29.4299C281.013 29.254 281.359 29.1641 281.71 29.1699C281.969 29.1658 282.225 29.2205 282.46 29.3299C282.693 29.4309 282.904 29.577 283.08 29.7599L282.5 30.2599C282.404 30.1439 282.28 30.0544 282.14 29.9999C281.983 29.9211 281.808 29.8852 281.632 29.8957C281.456 29.9062 281.287 29.9629 281.14 30.0599C280.973 30.1638 280.836 30.3083 280.74 30.4799C280.648 30.6594 280.6 30.8582 280.6 31.0599C280.6 31.2617 280.648 31.4605 280.74 31.6399C280.835 31.8144 280.973 31.9623 281.14 32.0699C281.304 32.1758 281.495 32.2314 281.69 32.2299C281.845 32.2255 281.998 32.1916 282.14 32.1299C282.284 32.0634 282.414 31.9681 282.52 31.8499L283.09 32.3499C282.911 32.5395 282.697 32.6924 282.46 32.7999C282.216 32.9037 281.955 32.9581 281.69 32.9599C281.344 32.9731 281.001 32.89 280.7 32.7199Z" fill="#495565"/>
<path d="M286.39 29.61C286.532 29.7561 286.642 29.9304 286.712 30.1216C286.783 30.3127 286.813 30.5166 286.8 30.72V32.89H286V32.47C285.862 32.628 285.691 32.7542 285.5 32.84C285.302 32.9289 285.087 32.9766 284.87 32.98C284.631 32.9848 284.395 32.9334 284.18 32.83C283.985 32.7453 283.818 32.6065 283.7 32.43C283.58 32.2496 283.517 32.0368 283.52 31.82C283.516 31.5968 283.586 31.3785 283.72 31.2C283.856 31.013 284.039 30.8647 284.25 30.77C284.483 30.6685 284.736 30.6174 284.99 30.62C285.332 30.623 285.671 30.6873 285.99 30.81V30.72C285.997 30.5008 285.922 30.2868 285.78 30.12C285.69 30.0378 285.584 29.975 285.469 29.9354C285.354 29.8959 285.231 29.8804 285.11 29.89C284.76 29.9006 284.418 29.9931 284.11 30.16L283.82 29.57C284.265 29.3352 284.757 29.2052 285.26 29.19C285.467 29.1798 285.674 29.2118 285.868 29.284C286.062 29.3562 286.24 29.4671 286.39 29.61ZM285.63 32.19C285.715 32.1485 285.79 32.0883 285.849 32.0139C285.908 31.9394 285.949 31.8526 285.97 31.76V31.35C285.686 31.2573 285.389 31.21 285.09 31.21C284.893 31.2049 284.7 31.2646 284.54 31.38C284.471 31.4242 284.414 31.4847 284.374 31.5562C284.334 31.6277 284.312 31.708 284.31 31.79C284.308 31.8704 284.326 31.9501 284.363 32.0218C284.399 32.0934 284.453 32.1547 284.52 32.2C284.668 32.3059 284.848 32.3587 285.03 32.35C285.241 32.3542 285.449 32.2988 285.63 32.19Z" fill="#495565"/>
<path d="M289.8 32.69C289.695 32.7829 289.573 32.8543 289.44 32.9C289.301 32.9597 289.151 32.9936 289 33C288.864 33.0021 288.73 32.9766 288.604 32.925C288.479 32.8735 288.365 32.7969 288.27 32.7C288.174 32.601 288.1 32.4833 288.052 32.3542C288.003 32.2252 287.982 32.0875 287.99 31.95V30H287.46V29.29H288V28.29H288.82V29.29H289.64V30H288.82V31.85C288.818 31.9602 288.857 32.0673 288.93 32.15C288.962 32.1877 289.002 32.218 289.047 32.2387C289.092 32.2594 289.141 32.2701 289.19 32.27C289.256 32.284 289.324 32.284 289.39 32.27C289.448 32.2499 289.503 32.2194 289.55 32.18L289.8 32.69Z" fill="#495565"/>
<path d="M290.65 28.58C290.561 28.4891 290.511 28.3672 290.51 28.24C290.51 28.1769 290.522 28.1144 290.546 28.056C290.57 27.9977 290.605 27.9447 290.65 27.9C290.695 27.8519 290.749 27.8138 290.809 27.7879C290.869 27.7621 290.934 27.7492 291 27.75C291.064 27.75 291.127 27.7633 291.186 27.7891C291.244 27.8149 291.297 27.8527 291.34 27.9C291.385 27.9447 291.42 27.9977 291.444 28.056C291.468 28.1144 291.48 28.1769 291.48 28.24C291.479 28.3672 291.429 28.4891 291.34 28.58C291.297 28.6272 291.244 28.665 291.186 28.6908C291.127 28.7167 291.064 28.73 291 28.73C290.934 28.7308 290.869 28.7178 290.809 28.692C290.749 28.6662 290.695 28.628 290.65 28.58ZM290.57 29.27H291.42V32.89H290.57V29.27Z" fill="#495565"/>
<path d="M293.25 32.72C292.959 32.5531 292.715 32.3158 292.54 32.03C292.37 31.7421 292.281 31.4141 292.281 31.08C292.281 30.7458 292.37 30.4178 292.54 30.13C292.716 29.8477 292.961 29.614 293.25 29.45C293.551 29.269 293.899 29.1788 294.25 29.19C294.602 29.1776 294.949 29.268 295.25 29.45C295.54 29.614 295.784 29.8477 295.96 30.13C296.13 30.4178 296.219 30.7458 296.219 31.08C296.219 31.4141 296.13 31.7421 295.96 32.03C295.785 32.3158 295.541 32.5531 295.25 32.72C294.947 32.8973 294.601 32.9873 294.25 32.98C293.899 32.9858 293.554 32.8959 293.25 32.72ZM294.77 32.09C294.94 31.9851 295.078 31.8366 295.17 31.66C295.27 31.4829 295.321 31.283 295.32 31.08C295.32 30.8782 295.272 30.6794 295.18 30.5C295.084 30.3254 294.942 30.1802 294.77 30.08C294.607 29.9724 294.416 29.9151 294.22 29.9151C294.025 29.9151 293.833 29.9724 293.67 30.08C293.501 30.1809 293.363 30.3261 293.27 30.5C293.172 30.6775 293.121 30.8771 293.121 31.08C293.121 31.2828 293.172 31.4824 293.27 31.66C293.362 31.8366 293.501 31.9851 293.67 32.09C293.833 32.1975 294.025 32.2548 294.22 32.2548C294.416 32.2548 294.607 32.1975 294.77 32.09Z" fill="#495565"/>
<path d="M299.69 29.37C299.897 29.4838 300.065 29.6583 300.17 29.87C300.289 30.0907 300.348 30.3392 300.34 30.59V32.89H299.51V30.76C299.519 30.5375 299.444 30.3199 299.3 30.15C299.23 30.0746 299.145 30.015 299.05 29.9754C298.955 29.9357 298.853 29.9168 298.75 29.92C298.523 29.9134 298.302 29.9919 298.13 30.14C298.049 30.2091 297.984 30.2949 297.939 30.3916C297.894 30.4882 297.87 30.5934 297.87 30.7V32.89H297V29.27H297.85V29.76C297.967 29.5836 298.129 29.442 298.32 29.35C298.519 29.2412 298.743 29.1861 298.97 29.19C299.222 29.1815 299.472 29.2439 299.69 29.37Z" fill="#495565"/>
<path d="M304.05 32.77C303.705 32.6398 303.389 32.4427 303.12 32.19L303.63 31.57C304.055 31.9789 304.62 32.2112 305.21 32.22C305.444 32.2331 305.675 32.1699 305.87 32.04C305.945 31.989 306.006 31.9203 306.048 31.8401C306.089 31.7598 306.111 31.6705 306.11 31.58C306.114 31.4665 306.074 31.3557 306 31.27C305.903 31.1709 305.783 31.0985 305.65 31.06C305.439 30.9789 305.221 30.9154 305 30.87C304.686 30.7982 304.378 30.7012 304.08 30.58C303.861 30.485 303.668 30.3373 303.52 30.15C303.38 29.9442 303.31 29.6987 303.32 29.45C303.315 29.1833 303.391 28.9215 303.54 28.7C303.694 28.4765 303.905 28.2972 304.15 28.18C304.418 28.0617 304.707 28.0004 305 28C305.669 27.9902 306.317 28.229 306.82 28.67L306.34 29.31C306.142 29.1377 305.92 28.9962 305.68 28.89C305.454 28.8005 305.213 28.7531 304.97 28.75C304.761 28.7401 304.556 28.8038 304.39 28.93C304.32 28.9802 304.262 29.0461 304.222 29.1226C304.182 29.199 304.161 29.2837 304.16 29.37C304.158 29.4862 304.197 29.5993 304.27 29.69C304.374 29.7845 304.496 29.856 304.63 29.9L305.27 30.08C305.72 30.1565 306.15 30.3269 306.53 30.58C306.67 30.6868 306.782 30.8267 306.855 30.9872C306.929 31.1477 306.961 31.3239 306.95 31.5C306.951 31.7723 306.875 32.0393 306.73 32.27C306.579 32.4981 306.363 32.6757 306.11 32.78C305.796 32.9203 305.453 32.9853 305.11 32.97C304.748 32.964 304.389 32.8963 304.05 32.77Z" fill="#495565"/>
<path d="M310.08 32.19C310.248 32.1302 310.402 32.0347 310.53 31.91L311.02 32.42C310.835 32.5993 310.613 32.7358 310.37 32.82C310.108 32.9203 309.83 32.9744 309.55 32.98C309.217 32.9769 308.891 32.891 308.6 32.73C308.312 32.5706 308.073 32.3355 307.91 32.05C307.732 31.7473 307.642 31.401 307.65 31.05C307.635 30.6995 307.721 30.3521 307.9 30.05C308.056 29.7656 308.288 29.5302 308.57 29.37C308.857 29.2091 309.181 29.1264 309.51 29.13C309.756 29.1178 310.001 29.163 310.227 29.2619C310.453 29.3608 310.652 29.5108 310.81 29.7C311.147 30.1516 311.313 30.7076 311.28 31.27H308.48C308.511 31.5371 308.635 31.7848 308.83 31.97C309.021 32.1438 309.272 32.237 309.53 32.23C309.714 32.2494 309.9 32.2359 310.08 32.19ZM308.85 30.12C308.658 30.2853 308.527 30.5109 308.48 30.76H310.48C310.447 30.5191 310.339 30.2948 310.17 30.12C310.085 30.0384 309.985 29.975 309.875 29.9337C309.765 29.8924 309.647 29.8741 309.53 29.88C309.281 29.8726 309.039 29.9582 308.85 30.12Z" fill="#495565"/>
<path d="M313.49 29.4C313.725 29.2585 313.995 29.1858 314.27 29.19V29.92C313.929 29.9026 313.594 30.0131 313.33 30.23C313.211 30.3343 313.117 30.4639 313.055 30.6092C312.992 30.7545 312.963 30.912 312.97 31.07V32.89H312.12V29.27H313V30C313.097 29.7542 313.268 29.5446 313.49 29.4Z" fill="#495565"/>
<path d="M314.66 29.27H315.57L316.62 31.91L317.62 29.27H318.52L317 32.89H316.2L314.66 29.27Z" fill="#495565"/>
<path d="M321.4 32.1899C321.567 32.1277 321.72 32.0325 321.85 31.9099L322.34 32.4199C322.155 32.5992 321.933 32.7358 321.69 32.8199C321.428 32.9202 321.15 32.9743 320.87 32.9799C320.537 32.9769 320.211 32.891 319.92 32.7299C319.631 32.5681 319.39 32.3337 319.22 32.0499C319.055 31.7531 318.969 31.4193 318.969 31.0799C318.969 30.7406 319.055 30.4067 319.22 30.1099C319.382 29.8271 319.617 29.5927 319.9 29.4309C320.183 29.2692 320.504 29.186 320.83 29.1899C321.077 29.1777 321.324 29.2228 321.552 29.3217C321.779 29.4206 321.98 29.5705 322.14 29.7599C322.472 30.2138 322.638 30.7682 322.61 31.3299H319.8C319.839 31.5969 319.965 31.8433 320.16 32.0299C320.351 32.2037 320.602 32.2969 320.86 32.2899C321.044 32.2888 321.227 32.2549 321.4 32.1899ZM320.17 30.1199C319.978 30.2853 319.847 30.5109 319.8 30.7599H321.8C321.763 30.5204 321.655 30.2974 321.49 30.1199C321.405 30.0383 321.305 29.9749 321.195 29.9336C321.085 29.8923 320.967 29.8741 320.85 29.8799C320.601 29.8726 320.359 29.9582 320.17 30.1199Z" fill="#495565"/>
<path d="M324.81 29.4C325.042 29.2588 325.309 29.186 325.58 29.19V29.92C325.242 29.9021 324.91 30.0129 324.65 30.23C324.531 30.3343 324.437 30.4638 324.375 30.6092C324.312 30.7545 324.283 30.912 324.29 31.07V32.89H323.44V29.27H324.29V30C324.395 29.7499 324.577 29.5398 324.81 29.4Z" fill="#495565"/>
<path d="M326.84 32.83C326.569 32.7448 326.315 32.6128 326.09 32.44L326.46 31.88C326.648 32.0197 326.857 32.1278 327.08 32.2C327.278 32.2772 327.488 32.3179 327.7 32.32C327.857 32.3268 328.013 32.2886 328.15 32.21C328.2 32.1777 328.241 32.1332 328.269 32.0807C328.297 32.0282 328.311 31.9695 328.31 31.91C328.312 31.8479 328.296 31.7865 328.264 31.7332C328.233 31.6799 328.186 31.6371 328.13 31.61C327.942 31.5275 327.748 31.4606 327.55 31.41C327.304 31.3483 327.063 31.2681 326.83 31.17C326.663 31.1001 326.517 30.986 326.41 30.84C326.304 30.6879 326.251 30.5051 326.26 30.32C326.255 30.1137 326.315 29.9112 326.43 29.74C326.552 29.5601 326.721 29.4181 326.92 29.33C327.144 29.2338 327.386 29.1861 327.63 29.19C327.871 29.1909 328.111 29.2314 328.34 29.31C328.576 29.3824 328.802 29.4867 329.01 29.62L328.68 30.2C328.512 30.0943 328.334 30.0039 328.15 29.93C327.982 29.8734 327.807 29.8431 327.63 29.84C327.485 29.8352 327.343 29.8735 327.22 29.95C327.17 29.9799 327.129 30.0225 327.101 30.0735C327.073 30.1244 327.059 30.1818 327.06 30.24C327.06 30.2754 327.066 30.3106 327.08 30.3432C327.094 30.3759 327.114 30.4054 327.14 30.43C327.202 30.4822 327.273 30.5228 327.35 30.55L327.83 30.71C328.055 30.7681 328.275 30.8416 328.49 30.93C328.658 31.0076 328.808 31.1201 328.93 31.26C329.047 31.4266 329.106 31.6266 329.1 31.83C329.106 31.9894 329.073 32.1479 329.006 32.2923C328.938 32.4367 328.836 32.5628 328.71 32.66C328.422 32.8768 328.07 32.9896 327.71 32.98C327.413 32.9824 327.119 32.9316 326.84 32.83Z" fill="#495565"/>
<path fill-rule="evenodd" clip-rule="evenodd" d="M48.79 49.24C47.7363 49.2517 46.7116 49.5871 45.8548 50.2006C44.998 50.8141 44.3505 51.6762 44 52.67C44.2598 52.8568 44.507 53.0606 44.74 53.28C44.8904 52.7332 45.1489 52.2221 45.5003 51.7769C45.8517 51.3318 46.2888 50.9617 46.7857 50.6885C47.2827 50.4153 47.8294 50.2446 48.3936 50.1864C48.9577 50.1283 49.5278 50.1839 50.07 50.35C51.1666 50.7187 52.076 51.5009 52.6046 52.53C53.1331 53.5591 53.2391 54.7539 52.9 55.86C52.7507 56.4077 52.493 56.9199 52.1421 57.3661C51.7911 57.8124 51.3542 58.1836 50.8571 58.4578C50.36 58.732 49.8129 58.9035 49.2483 58.9623C48.6836 59.0211 48.1129 58.9659 47.57 58.8L47.22 58.67V59C47.235 59.2197 47.235 59.4402 47.22 59.66C47.8717 59.8709 48.5591 59.9491 49.2416 59.8901C49.924 59.831 50.5878 59.6359 51.1936 59.3162C51.7994 58.9965 52.3351 58.5587 52.769 58.0287C53.2029 57.4986 53.5263 56.887 53.72 56.23C54.1528 54.8981 54.0491 53.4499 53.431 52.1932C52.8129 50.9365 51.7291 49.9703 50.41 49.5C49.9004 49.3303 49.3671 49.2426 48.83 49.24H48.79Z" fill="#218FCF"/>
<path fill-rule="evenodd" clip-rule="evenodd" d="M32.0001 59V58.78C31.5826 58.9273 31.1428 59.0018 30.7001 59C29.5305 59 28.4088 58.5354 27.5817 57.7083C26.7547 56.8813 26.2901 55.7596 26.2901 54.59C26.2901 53.4204 26.7547 52.2987 27.5817 51.4717C28.4088 50.6446 29.5305 50.18 30.7001 50.18C31.5864 50.1899 32.4476 50.4754 33.1644 50.9968C33.8811 51.5182 34.4178 52.2498 34.7001 53.09C34.9425 52.889 35.1963 52.702 35.4601 52.53C35.2137 51.8906 34.8416 51.3071 34.3656 50.8142C33.8896 50.3213 33.3196 49.9289 32.6892 49.6603C32.0588 49.3918 31.3809 49.2525 30.6957 49.2507C30.0105 49.2489 29.3319 49.3847 28.7001 49.65C27.4179 50.227 26.4102 51.2797 25.8896 52.5858C25.369 53.8919 25.3764 55.3492 25.9101 56.65C26.2851 57.6144 26.9414 58.4439 27.7938 59.0306C28.6462 59.6173 29.6553 59.9341 30.6901 59.94C31.1362 59.9405 31.5804 59.8799 32.0101 59.76C32.0001 59.49 32.0001 59.24 32.0001 59Z" fill="#218FCF"/>
<path fill-rule="evenodd" clip-rule="evenodd" d="M57.1099 64.58C56.0368 63.3953 54.7167 62.4607 53.2427 61.8421C51.7688 61.2235 50.1771 60.936 48.5799 61C47.9108 61.0009 47.2426 61.0477 46.5799 61.14C46.4697 61.4835 46.3326 61.8179 46.1699 62.14C46.9671 62.0175 47.774 61.9706 48.5799 62C50.0148 61.9236 51.4491 62.1614 52.7825 62.6968C54.1159 63.2323 55.3163 64.0524 56.2999 65.1V74.28H57.2399V64.7L57.1099 64.58Z" fill="#218FCF"/>
<path fill-rule="evenodd" clip-rule="evenodd" d="M32.53 61.1C32.022 61.0402 31.5113 61.0068 31 61C29.3852 60.9341 27.7752 61.2181 26.2805 61.8325C24.7857 62.447 23.4415 63.3774 22.34 64.56L22.21 64.69V74.26H23.15V65.1C24.1651 64.0438 25.3967 63.2198 26.7604 62.6847C28.1241 62.1496 29.5875 61.916 31.05 62C31.6759 62.0016 32.3008 62.0484 32.92 62.14C32.7674 61.8022 32.6371 61.4548 32.53 61.1Z" fill="#218FCF"/>
<path fill-rule="evenodd" clip-rule="evenodd" d="M39.7401 53.3C38.6131 53.302 37.5121 53.6379 36.576 54.2655C35.64 54.893 34.911 55.7839 34.4811 56.8256C34.0512 57.8673 33.9397 59.0131 34.1608 60.1181C34.3819 61.2232 34.9255 62.2379 35.7231 63.034C36.5206 63.8302 37.5363 64.3721 38.6417 64.5912C39.7471 64.8103 40.8927 64.6969 41.9336 64.2651C42.9746 63.8334 43.8642 63.1028 44.4901 62.1657C45.116 61.2286 45.45 60.1269 45.4501 59C45.4474 57.4873 44.8446 56.0375 43.7741 54.9689C42.7036 53.9002 41.2527 53.3 39.7401 53.3ZM39.7401 54.22C40.6874 54.222 41.6129 54.5048 42.3995 55.0328C43.1861 55.5608 43.7985 56.3102 44.1592 57.1862C44.52 58.0622 44.6128 59.0255 44.426 59.9543C44.2393 60.883 43.7813 61.7356 43.11 62.4041C42.4387 63.0726 41.5843 63.527 40.6547 63.7099C39.7252 63.8928 38.7623 63.7959 37.8878 63.4315C37.0133 63.0672 36.2664 62.4517 35.7418 61.6628C35.2171 60.874 34.9381 59.9474 34.94 59C34.94 58.3701 35.0643 57.7464 35.3056 57.1646C35.547 56.5828 35.9007 56.0543 36.3465 55.6094C36.7924 55.1645 37.3216 54.8119 37.9039 54.5717C38.4862 54.3316 39.1102 54.2087 39.7401 54.21" fill="#1E4489"/>
<path fill-rule="evenodd" clip-rule="evenodd" d="M39.9998 67.0899C38.36 67.0457 36.7301 67.3582 35.2228 68.0056C33.7155 68.6531 32.3668 69.6201 31.2698 70.8399V79.2899C31.2712 79.5634 31.3744 79.8266 31.5593 80.0281C31.7442 80.2297 31.9975 80.3551 32.2698 80.3799H47.5598C47.8281 80.3449 48.0755 80.2164 48.2584 80.0171C48.4412 79.8177 48.548 79.5602 48.5598 79.2899V70.8799C47.4822 69.6788 46.162 68.7199 44.6864 68.0666C43.2109 67.4133 41.6135 67.0804 39.9998 67.0899ZM39.9998 66.1799C41.8018 66.1749 43.5832 66.5622 45.2204 67.3152C46.8575 68.0681 48.311 69.1685 49.4798 70.5399V79.2899C49.468 79.8064 49.2616 80.2994 48.9019 80.6702C48.5422 81.041 48.0557 81.2624 47.5398 81.2899H32.2898C31.7681 81.2769 31.2722 81.0604 30.9078 80.6868C30.5435 80.3131 30.3397 79.8118 30.3398 79.2899V70.5199C31.5265 69.1244 33.0092 68.0108 34.6802 67.26C36.3511 66.5093 38.1684 66.1403 39.9998 66.1799Z" fill="#1E4489"/>
<path fill-rule="evenodd" clip-rule="evenodd" d="M130.07 49.27C127.848 49.3384 125.698 50.0756 123.902 51.3851C122.105 52.6946 120.745 54.5155 120 56.61C118.817 56.0477 117.529 55.741 116.22 55.7099H116C113.864 55.7169 111.795 56.4564 110.139 57.8051C108.483 59.1537 107.34 61.0298 106.9 63.1199C106.303 62.9619 105.688 62.878 105.07 62.8699H104.89C102.963 62.8767 101.114 63.631 99.7314 64.974C98.3492 66.3169 97.5421 68.1438 97.48 70.07C97.5388 72.1137 98.3609 74.0613 99.7843 75.529C101.208 76.9968 103.129 77.8783 105.17 78H106C110.93 78 134.34 77.9 139.21 77.9H140.21C144.37 77.9 147.81 74 147.93 69.1399C148.05 64.2799 144.93 60.4099 140.93 60.0299C140.39 54.0799 135.88 49.3899 130.28 49.2599L130.07 49.27ZM130.07 50.5999H130.31C135.15 50.7099 139.17 54.8299 139.66 60.1699L139.76 61.2599L140.86 61.36C144.22 61.68 146.77 65.0699 146.67 69.1299C146.57 73.1899 143.67 76.5899 140.28 76.5899H139.28C136.84 76.5899 129.69 76.5899 122.75 76.5899C115.81 76.5899 108.54 76.5899 106.07 76.5899H105.24C103.542 76.4849 101.944 75.7539 100.755 74.5384C99.565 73.3229 98.8685 71.7093 98.8 70.01C98.8415 68.4252 99.4984 66.9189 100.631 65.8101C101.765 64.7013 103.285 64.0772 104.87 64.07H105C105.507 64.0745 106.011 64.1451 106.5 64.2799L107.87 64.66L108.16 63.2799C108.561 61.4994 109.556 59.9081 110.98 58.7671C112.405 57.626 114.175 57.0029 116 57H116.19C117.312 57.0191 118.417 57.2783 119.43 57.7599L120.73 58.3899L121.26 57.0499C121.908 55.2006 123.102 53.5913 124.684 52.4344C126.266 51.2775 128.161 50.6275 130.12 50.57" fill="#1E4489"/>
<path fill-rule="evenodd" clip-rule="evenodd" d="M210 78.85H230.32V48.34H209.67L200.18 58.93V68.39L210 78.85ZM231.16 79.7H209.68L199.34 68.7V58.61L209.29 47.49H231.2L231.16 79.7Z" fill="#1E4489"/>
<path fill-rule="evenodd" clip-rule="evenodd" d="M217 54.1C217.002 54.6047 216.854 55.0987 216.575 55.5194C216.296 55.94 215.898 56.2684 215.433 56.463C214.967 56.6575 214.454 56.7094 213.959 56.6122C213.463 56.5149 213.008 56.2728 212.65 55.9166C212.293 55.5604 212.049 55.106 211.95 54.6111C211.85 54.1162 211.9 53.603 212.093 53.1364C212.286 52.6699 212.613 52.2711 213.032 51.9904C213.452 51.7098 213.945 51.56 214.45 51.56C214.784 51.5586 215.116 51.6234 215.425 51.7504C215.734 51.8775 216.015 52.0644 216.252 52.3004C216.489 52.5364 216.677 52.8168 216.806 53.1256C216.934 53.4344 217 53.7656 217 54.1Z" fill="#218FCF"/>
<path fill-rule="evenodd" clip-rule="evenodd" d="M217 64.27C217.002 64.7748 216.854 65.2688 216.575 65.6894C216.296 66.1101 215.898 66.4385 215.433 66.633C214.967 66.8275 214.454 66.8795 213.959 66.7822C213.463 66.685 213.008 66.4429 212.65 66.0867C212.293 65.7304 212.049 65.2761 211.95 64.7812C211.85 64.2862 211.9 63.773 212.093 63.3065C212.286 62.8399 212.613 62.4411 213.032 62.1605C213.452 61.8798 213.945 61.73 214.45 61.73C214.784 61.7287 215.116 61.7934 215.425 61.9205C215.734 62.0475 216.015 62.2344 216.252 62.4704C216.489 62.7064 216.677 62.9868 216.806 63.2957C216.934 63.6045 217 63.9356 217 64.27Z" fill="#218FCF"/>
<path fill-rule="evenodd" clip-rule="evenodd" d="M207.13 64.27C207.13 64.7724 206.981 65.2634 206.702 65.6811C206.423 66.0988 206.026 66.4244 205.562 66.6167C205.098 66.8089 204.587 66.8592 204.095 66.7612C203.602 66.6632 203.149 66.4213 202.794 66.066C202.439 65.7108 202.197 65.2582 202.099 64.7655C202.001 64.2728 202.051 63.7621 202.243 63.298C202.436 62.8339 202.761 62.4372 203.179 62.1581C203.597 61.879 204.088 61.73 204.59 61.73C204.924 61.7287 205.255 61.7935 205.564 61.9207C205.872 62.0478 206.153 62.2349 206.389 62.471C206.625 62.7071 206.812 62.9877 206.939 63.2964C207.067 63.6052 207.131 63.9361 207.13 64.27Z" fill="#218FCF"/>
<path fill-rule="evenodd" clip-rule="evenodd" d="M217 74.1C217.002 74.6048 216.854 75.0988 216.575 75.5194C216.296 75.9401 215.898 76.2685 215.433 76.463C214.967 76.6576 214.454 76.7095 213.959 76.6122C213.463 76.515 213.008 76.2729 212.65 75.9167C212.293 75.5604 212.049 75.1061 211.95 74.6112C211.85 74.1162 211.9 73.603 212.093 73.1365C212.286 72.6699 212.613 72.2711 213.032 71.9905C213.452 71.7098 213.945 71.56 214.45 71.56C215.124 71.56 215.772 71.8273 216.249 72.3033C216.727 72.7794 216.997 73.4254 217 74.1Z" fill="#218FCF"/>
<path d="M211.556 57.0994L207.681 60.9743L208.275 61.5683L212.15 57.6933L211.556 57.0994Z" fill="#1E4489"/>
<path d="M208.27 67.1387L207.676 67.7327L211.551 71.6076L212.145 71.0136L208.27 67.1387Z" fill="#1E4489"/>
<path d="M211.54 63.7599H208.49V64.44H211.54V63.7599Z" fill="#1E4489"/>
<path fill-rule="evenodd" clip-rule="evenodd" d="M224.54 56.65L228.49 54.27L224.54 51.9V53.39H218.32V55.15H224.54V56.65Z" fill="#1E4489"/>
<path fill-rule="evenodd" clip-rule="evenodd" d="M224.54 63.22H218.32V64.98H224.54V66.48L228.49 64.1L224.54 61.73V63.22Z" fill="#1E4489"/>
<path fill-rule="evenodd" clip-rule="evenodd" d="M224.54 73.28H218.32V74.92H224.54V76.31L228.49 74.1L224.54 71.9V73.28Z" fill="#1E4489"/>
<path fill-rule="evenodd" clip-rule="evenodd" d="M313.15 40H277.05V49.77H313.15V40ZM312.09 41.08V48.68H278.09V41.08H312.09Z" fill="#1E4489"/>
<path d="M309.75 43.39H308.48V46.36H309.75V43.39Z" fill="#1E4489"/>
<path d="M307.63 43.39H306.36V46.36H307.63V43.39Z" fill="#1E4489"/>
<path d="M305.5 43.39H304.23V46.36H305.5V43.39Z" fill="#1E4489"/>
<path d="M303.38 43.39H302.11V46.36H303.38V43.39Z" fill="#1E4489"/>
<path d="M301.25 43.39H299.98V46.36H301.25V43.39Z" fill="#1E4489"/>
<path d="M299.13 43.39H297.86V46.36H299.13V43.39Z" fill="#1E4489"/>
<path d="M297.01 43.39H295.74V46.36H297.01V43.39Z" fill="#1E4489"/>
<path d="M294.88 43.39H293.61V46.36H294.88V43.39Z" fill="#1E4489"/>
<path fill-rule="evenodd" clip-rule="evenodd" d="M282.15 44.88C282.152 45.092 282.091 45.2999 281.975 45.4772C281.858 45.6544 281.692 45.7931 281.496 45.8756C281.301 45.9582 281.086 45.9808 280.877 45.9406C280.669 45.9005 280.478 45.7994 280.327 45.6501C280.176 45.5009 280.073 45.3103 280.031 45.1024C279.989 44.8946 280.01 44.679 280.09 44.4829C280.171 44.2868 280.308 44.1191 280.485 44.001C280.661 43.883 280.868 43.82 281.08 43.82C281.22 43.8187 281.359 43.8451 281.489 43.8978C281.618 43.9505 281.736 44.0283 281.836 44.1269C281.935 44.2255 282.014 44.3428 282.068 44.472C282.122 44.6013 282.15 44.7399 282.15 44.88Z" fill="#218FCF"/>
<path fill-rule="evenodd" clip-rule="evenodd" d="M313.15 52H277.05V61.34H313.15V52ZM312.09 53V60.27H278.09V53H312.09Z" fill="#1E4489"/>
<path d="M309.75 54.9399H308.48V58.3399H309.75V54.9399Z" fill="#1E4489"/>
<path d="M307.63 54.9399H306.36V58.3399H307.63V54.9399Z" fill="#1E4489"/>
<path d="M305.5 54.9399H304.23V58.3399H305.5V54.9399Z" fill="#1E4489"/>
<path d="M303.38 54.9399H302.11V58.3399H303.38V54.9399Z" fill="#1E4489"/>
<path d="M301.25 54.9399H299.98V58.3399H301.25V54.9399Z" fill="#1E4489"/>
<path d="M299.13 54.9399H297.86V58.3399H299.13V54.9399Z" fill="#1E4489"/>
<path d="M297.01 54.9399H295.74V58.3399H297.01V54.9399Z" fill="#1E4489"/>
<path d="M294.88 54.9399H293.61V58.3399H294.88V54.9399Z" fill="#1E4489"/>
<path fill-rule="evenodd" clip-rule="evenodd" d="M282.15 56.43C282.152 56.642 282.091 56.8499 281.975 57.0271C281.858 57.2044 281.692 57.3431 281.496 57.4256C281.301 57.5082 281.086 57.5308 280.877 57.4906C280.669 57.4505 280.478 57.3494 280.327 57.2001C280.176 57.0509 280.073 56.8603 280.031 56.6524C279.989 56.4446 280.01 56.229 280.09 56.0329C280.171 55.8368 280.308 55.669 280.485 55.551C280.661 55.433 280.868 55.37 281.08 55.37C281.22 55.3687 281.359 55.3951 281.489 55.4478C281.618 55.5005 281.736 55.5783 281.836 55.6769C281.935 55.7755 282.014 55.8928 282.068 56.022C282.122 56.1513 282.15 56.2899 282.15 56.43Z" fill="#218FCF"/>
<path fill-rule="evenodd" clip-rule="evenodd" d="M313.15 63.52H277.05V73.29H313.15V63.52ZM312.09 64.61V72.2H278.09V64.61H312.09Z" fill="#1E4489"/>
<path d="M309.75 66.92H308.48V69.89H309.75V66.92Z" fill="#1E4489"/>
<path d="M307.63 66.92H306.36V69.89H307.63V66.92Z" fill="#1E4489"/>
<path d="M305.5 66.92H304.23V69.89H305.5V66.92Z" fill="#1E4489"/>
<path d="M303.38 66.92H302.11V69.89H303.38V66.92Z" fill="#1E4489"/>
<path d="M301.25 66.92H299.98V69.89H301.25V66.92Z" fill="#1E4489"/>
<path d="M299.13 66.92H297.86V69.89H299.13V66.92Z" fill="#1E4489"/>
<path d="M297.01 66.92H295.74V69.89H297.01V66.92Z" fill="#1E4489"/>
<path d="M294.88 66.92H293.61V69.89H294.88V66.92Z" fill="#1E4489"/>
<path fill-rule="evenodd" clip-rule="evenodd" d="M282.15 68.4C282.152 68.612 282.091 68.8199 281.975 68.9971C281.858 69.1744 281.692 69.3131 281.496 69.3956C281.301 69.4781 281.086 69.5008 280.877 69.4606C280.669 69.4205 280.478 69.3194 280.327 69.1701C280.176 69.0209 280.073 68.8302 280.031 68.6224C279.989 68.4146 280.01 68.1989 280.09 68.0028C280.171 67.8067 280.308 67.639 280.485 67.521C280.661 67.403 280.868 67.34 281.08 67.34C281.362 67.34 281.633 67.4513 281.833 67.6498C282.033 67.8483 282.147 68.1179 282.15 68.4Z" fill="#218FCF"/>
<path fill-rule="evenodd" clip-rule="evenodd" d="M313.15 75.28H277.05V85.05H313.15V75.28ZM312.09 76.37V84H278.09V76.4H312.09" fill="#1E4489"/>
<path d="M309.75 78.68H308.48V81.65H309.75V78.68Z" fill="#1E4489"/>
<path d="M307.63 78.68H306.36V81.65H307.63V78.68Z" fill="#1E4489"/>
<path d="M305.5 78.68H304.23V81.65H305.5V78.68Z" fill="#1E4489"/>
<path d="M303.38 78.68H302.11V81.65H303.38V78.68Z" fill="#1E4489"/>
<path d="M301.25 78.68H299.98V81.65H301.25V78.68Z" fill="#1E4489"/>
<path d="M299.13 78.68H297.86V81.65H299.13V78.68Z" fill="#1E4489"/>
<path d="M297.01 78.68H295.74V81.65H297.01V78.68Z" fill="#1E4489"/>
<path d="M294.88 78.68H293.61V81.65H294.88V78.68Z" fill="#1E4489"/>
<path fill-rule="evenodd" clip-rule="evenodd" d="M282.15 80.17C282.15 80.3816 282.087 80.5885 281.97 80.7644C281.852 80.9404 281.685 81.0775 281.489 81.1585C281.294 81.2395 281.079 81.2607 280.871 81.2194C280.664 81.1781 280.473 81.0762 280.323 80.9266C280.174 80.7769 280.072 80.5863 280.031 80.3787C279.989 80.1712 280.01 79.956 280.091 79.7605C280.172 79.565 280.31 79.3979 280.486 79.2803C280.662 79.1627 280.868 79.1 281.08 79.1C281.364 79.1 281.636 79.2127 281.837 79.4134C282.037 79.614 282.15 79.8862 282.15 80.17Z" fill="#218FCF"/>
</svg>
