<?xml version="1.0" standalone="no"?>
<!DOCTYPE svg PUBLIC "-//W3C//DTD SVG 20010904//EN"
 "http://www.w3.org/TR/2001/REC-SVG-20010904/DTD/svg10.dtd">
<svg version="1.0" xmlns="http://www.w3.org/2000/svg"
 width="518.000000pt" height="481.000000pt" viewBox="0 0 518.000000 481.000000"
 preserveAspectRatio="xMidYMid meet">

<g transform="translate(0.000000,481.000000) scale(0.100000,-0.100000)"
fill="#000000" stroke="none">
<path d="M2320 4519 c-433 -49 -826 -217 -1161 -495 -134 -111 -339 -339 -387
-430 -8 -15 -25 -24 -56 -28 -95 -15 -177 -106 -184 -206 -5 -73 11 -122 57
-173 47 -52 102 -77 171 -77 69 0 124 25 171 77 58 64 71 134 44 243 -9 34 68
135 214 283 307 313 653 487 1101 552 146 22 447 17 598 -10 102 -18 104 -19
122 -54 35 -69 113 -126 180 -132 47 -5 132 10 125 22 -3 5 0 6 8 3 15 -5 77
47 77 66 0 6 -5 8 -12 4 -6 -4 -8 -3 -5 3 6 10 -38 83 -51 83 -4 0 -17 -11
-30 -24 -42 -44 -114 -45 -162 -3 -46 40 -29 132 31 162 18 10 27 20 22 28 -4
7 2 5 12 -3 19 -15 19 -15 1 15 -44 71 -81 88 -120 56 -9 -8 -30 -10 -56 -6
-27 4 -47 2 -58 -7 -15 -11 -15 -11 -4 3 11 15 6 18 -50 28 -169 29 -439 38
-598 20z m-1486 -1108 c55 -57 32 -150 -42 -172 -110 -33 -187 103 -100 176
44 37 105 35 142 -4z"/>
<path d="M3177 4506 c19 -32 61 -82 98 -118 33 -31 41 -35 46 -21 5 15 6 15
12 0 3 -8 1 -17 -4 -19 -13 -4 -1 -58 12 -58 5 0 9 -5 9 -11 0 -15 59 -89 72
-89 5 0 6 9 3 21 -5 15 -4 19 4 15 6 -4 11 -6 12 -4 9 57 9 88 0 88 -6 0 -11
5 -11 11 0 5 5 7 11 3 7 -4 10 -1 7 7 -3 8 -11 13 -17 11 -7 -1 -10 2 -7 7 5
7 -22 46 -111 160 -2 3 -35 6 -73 8 -57 2 -69 0 -63 -11z"/>
<path d="M2371 3963 c-37 -5 -36 15 -11 -168 l12 -81 81 8 c115 10 293 -7 428
-41 186 -47 353 -128 503 -245 61 -47 194 -173 211 -198 6 -9 36 -54 68 -101
31 -46 72 -113 91 -149 l33 -64 99 43 c54 23 105 42 112 43 17 0 17 1 -28 88
-55 107 -125 214 -134 205 -4 -4 -6 -3 -4 3 6 20 -94 137 -225 263 -126 120
-364 258 -552 320 -167 55 -273 72 -470 76 -99 2 -195 1 -214 -2z"/>
<path d="M4136 3728 c5 -8 2 -9 -9 -5 -25 9 -22 -20 3 -33 11 -6 20 -16 20
-22 0 -21 31 -46 51 -41 10 3 19 7 19 9 0 10 -75 104 -83 104 -4 0 -5 -5 -1
-12z"/>
<path d="M4340 3725 c0 -8 101 -145 106 -145 7 0 -7 46 -23 72 -18 31 -83 87
-83 73z m65 -55 c3 -5 1 -10 -4 -10 -6 0 -11 5 -11 10 0 6 2 10 4 10 3 0 8 -4
11 -10z"/>
<path d="M4023 3613 c7 -30 641 -873 645 -856 2 7 -110 165 -250 349 -139 185
-273 364 -298 399 -25 34 -58 78 -73 96 -23 28 -27 30 -24 12z"/>
<path d="M4004 3517 c1 -28 10 -68 20 -88 19 -41 82 -106 92 -96 4 4 12 0 18
-8 15 -19 66 -31 66 -16 0 12 -172 245 -189 255 -5 4 -8 -16 -7 -47z"/>
<path d="M4320 3465 c-10 -12 -8 -20 11 -43 13 -16 31 -39 39 -52 22 -33 68
-93 84 -110 7 -8 22 -28 32 -45 26 -42 95 -135 100 -135 4 0 -19 57 -37 92 -5
10 -9 22 -9 28 0 9 -198 280 -205 280 -1 0 -8 -7 -15 -15z"/>
<path d="M2390 3284 c-88 -18 -173 -49 -248 -90 -34 -19 -77 -34 -95 -34 -45
-1 -108 -32 -140 -69 -74 -89 -47 -220 56 -270 79 -38 157 -23 214 42 17 19
34 50 38 67 8 38 31 53 124 85 193 65 391 49 565 -48 51 -29 61 -38 72 -76 14
-48 53 -94 98 -118 46 -24 135 -14 181 21 40 31 74 94 75 139 0 86 -82 177
-160 177 -20 0 -61 18 -113 50 -97 60 -203 102 -309 124 -94 19 -268 20 -358
0z m-301 -234 c25 -13 45 -64 37 -95 -15 -58 -103 -77 -143 -30 -62 71 23 170
106 125z m1116 -55 c31 -30 33 -83 6 -116 -14 -18 -29 -24 -60 -24 -54 0 -85
30 -85 81 0 73 88 111 139 59z"/>
<path d="M1192 3217 c-99 -156 -165 -316 -208 -503 -39 -173 -45 -424 -14
-609 39 -233 119 -432 250 -629 39 -58 74 -107 78 -110 5 -3 51 30 103 72 l95
77 -48 65 c-136 184 -225 424 -249 675 -26 271 41 564 184 804 l50 84 -24 18
c-41 32 -167 119 -172 119 -3 0 -23 -28 -45 -63z"/>
<path d="M4266 3220 c6 -8 18 -36 28 -62 10 -27 21 -48 25 -48 4 0 7 -8 8 -17
3 -35 80 -247 92 -251 6 -2 11 -10 11 -17 0 -7 4 -15 8 -17 9 -4 180 -229 230
-303 l34 -50 -7 100 c-4 55 -11 102 -16 103 -5 2 -7 8 -4 12 5 8 -378 528
-408 555 -8 7 -8 6 -1 -5z"/>
<path d="M4420 2788 c0 -4 9 -60 20 -125 38 -224 24 -518 -36 -756 -68 -273
-218 -564 -397 -772 -58 -67 -63 -70 -121 -80 -34 -6 -74 -18 -91 -27 -139
-75 -158 -278 -37 -378 83 -68 219 -67 298 2 56 49 78 101 79 183 l0 70 63 75
c88 103 213 293 273 411 144 288 215 560 226 864 l6 160 -26 40 c-15 22 -30
45 -35 50 -4 6 -27 36 -51 67 -24 32 -48 55 -54 51 -6 -3 -7 -1 -3 5 8 14 2
25 -39 77 -49 62 -74 90 -75 83z m-433 -1895 c58 -71 6 -173 -87 -173 -46 0
-100 56 -100 102 1 71 47 111 120 104 34 -3 50 -11 67 -33z"/>
<path d="M1710 2751 c-19 -10 -48 -37 -65 -60 -24 -34 -29 -52 -29 -94 0 -30
8 -66 18 -85 12 -24 18 -64 21 -150 8 -245 96 -451 265 -620 38 -38 97 -86
131 -108 34 -21 72 -50 85 -64 13 -14 43 -46 67 -72 35 -38 51 -47 89 -53 155
-23 265 143 181 273 -39 59 -97 86 -169 79 -50 -5 -58 -3 -114 34 -172 116
-290 334 -290 538 0 66 3 75 32 112 43 53 51 135 19 197 -42 82 -159 117 -241
73z m141 -100 c36 -36 37 -70 3 -110 -66 -79 -183 8 -133 100 24 45 89 50 130
10z m537 -977 c48 -54 10 -134 -63 -134 -69 0 -108 73 -69 128 33 48 92 50
132 6z"/>
<path d="M3290 2739 c-79 -32 -128 -111 -117 -191 3 -23 19 -61 36 -85 25 -35
31 -53 31 -96 0 -87 -27 -187 -76 -287 -38 -76 -62 -109 -123 -170 -89 -88
-189 -147 -220 -130 -11 5 -38 10 -61 10 -138 0 -220 -144 -154 -271 42 -82
172 -111 251 -56 22 15 46 39 54 53 7 14 36 37 64 51 140 71 302 216 373 336
85 141 128 286 137 458 3 63 10 100 22 118 26 41 29 120 5 167 -24 48 -47 69
-95 89 -41 17 -90 19 -127 4z m137 -137 c12 -28 12 -40 2 -64 -34 -82 -159
-57 -159 32 0 90 122 116 157 32z m-636 -912 c5 0 18 -9 29 -20 28 -28 27 -87
-2 -117 -25 -26 -82 -31 -111 -9 -25 19 -36 65 -24 100 10 29 61 59 85 51 8
-3 18 -5 23 -5z"/>
<path d="M2444 2706 c-130 -60 -208 -193 -190 -324 10 -69 60 -165 108 -207
124 -106 312 -98 428 18 51 51 75 96 88 167 20 108 -22 227 -102 296 -87 75
-232 97 -332 50z"/>
<path d="M492 2191 c-49 -13 -109 -56 -139 -102 -35 -54 -44 -149 -19 -214 19
-47 71 -100 121 -121 27 -11 34 -22 59 -103 34 -109 121 -292 199 -417 280
-453 728 -790 1244 -938 146 -42 268 -63 443 -78 128 -10 137 -12 169 -41 117
-101 290 -66 362 75 25 48 25 139 0 193 -23 51 -89 111 -138 124 -95 27 -169
7 -236 -62 l-49 -51 -124 12 c-596 56 -1100 355 -1429 847 -72 108 -168 298
-210 417 l-27 77 19 28 c98 139 6 336 -167 356 -25 3 -60 2 -78 -2z m131 -161
c84 -94 -45 -226 -142 -144 -38 32 -49 80 -27 123 35 67 118 77 169 21z m2163
-1595 c46 -29 56 -122 16 -158 -71 -65 -182 -21 -182 72 0 86 90 133 166 86z"/>
<path d="M3810 1880 c0 -27 -76 -173 -144 -275 -244 -366 -663 -588 -1114
-589 -109 -1 -133 -4 -136 -16 -3 -8 -8 -55 -12 -105 -3 -49 -8 -98 -10 -107
-3 -17 10 -18 143 -18 177 0 318 20 472 66 443 134 819 466 1001 886 l38 86
-107 38 c-58 20 -112 39 -118 42 -7 2 -13 -1 -13 -8z"/>
</g>
</svg>
