<?xml version="1.0" standalone="no"?>
<!DOCTYPE svg PUBLIC "-//W3C//DTD SVG 20010904//EN"
 "http://www.w3.org/TR/2001/REC-SVG-20010904/DTD/svg10.dtd">
<svg version="1.0" xmlns="http://www.w3.org/2000/svg"
 width="601.000000pt" height="415.000000pt" viewBox="0 0 601.000000 415.000000"
 preserveAspectRatio="xMidYMid meet">

<g transform="translate(0.000000,415.000000) scale(0.100000,-0.100000)"
fill="#000000" stroke="none">
<path d="M2565 3831 c-198 -51 -374 -129 -543 -240 -107 -70 -106 -52 -7 -186
l65 -90 -52 -44 c-117 -99 -246 -248 -319 -371 -23 -39 -44 -70 -47 -70 -2 0
-54 26 -114 58 -129 67 -114 74 -182 -87 -48 -115 -86 -234 -111 -357 -18 -86
-39 -293 -31 -301 2 -3 61 -7 129 -10 l124 -6 6 -111 c9 -147 31 -268 73 -396
20 -58 37 -110 40 -116 3 -7 -45 -34 -115 -64 l-120 -53 25 -51 c114 -232 217
-376 387 -544 l84 -84 82 96 c46 53 89 96 96 96 7 0 18 -7 25 -15 37 -45 250
-162 420 -231 57 -23 106 -46 108 -52 1 -5 -11 -61 -27 -123 -17 -62 -27 -116
-23 -120 19 -17 249 -50 440 -63 l72 -5 0 468 0 468 -89 6 c-362 26 -681 311
-762 682 -19 87 -16 284 5 370 26 104 105 259 173 339 144 172 354 277 581
293 l92 6 0 353 0 353 -97 -5 c-54 -3 -123 -10 -153 -14 -30 -4 -56 -7 -57 -6
-3 2 -53 244 -53 252 0 6 -11 4 -125 -25z"/>
<path d="M3249 3804 c-117 -35 -173 -186 -110 -291 36 -58 117 -103 185 -103
96 1 196 105 196 205 0 82 -63 166 -143 190 -60 18 -68 18 -128 -1z"/>
<path d="M4175 3011 c-82 -37 -134 -130 -121 -214 27 -169 221 -233 341 -113
29 29 45 57 54 90 41 162 -125 305 -274 237z"/>
<path d="M4415 1914 c-76 -28 -135 -113 -135 -195 0 -69 61 -154 132 -183 162
-68 333 110 259 269 -24 52 -66 91 -120 110 -53 18 -84 18 -136 -1z"/>
<path d="M3695 995 c-133 -72 -154 -234 -42 -332 80 -70 188 -68 267 3 93 84
85 233 -16 311 -31 23 -49 28 -108 31 -51 2 -79 -2 -101 -13z"/>
</g>
</svg>
