<svg xmlns="http://www.w3.org/2000/svg" xmlns:xlink="http://www.w3.org/1999/xlink" viewBox="0 0 512.41 177.51"><defs><style>.a,.c,.h,.i{fill:#fff;}.a{stroke:#326ce5;}.a,.i{stroke-miterlimit:10;stroke-width:0.82px;}.b{fill:#326ce5;}.d{fill:#232f3e;}.e{fill:#334554;}.e,.h{fill-rule:evenodd;}.f{fill:#2f383f;}.g{fill:url(#a);}.i{stroke:#161a1d;}.j{fill:#161a1d;}</style><linearGradient id="a" x1="4.8" y1="509.63" x2="5.21" y2="510.04" gradientTransform="matrix(80, 0, 0, -80, -78.75, 40873.59)" gradientUnits="userSpaceOnUse"><stop offset="0" stop-color="#4d27a8"/><stop offset="1" stop-color="#a166ff"/></linearGradient></defs><rect class="a" x="191.33" y="0.41" width="320.67" height="176.69"/><rect class="b" x="191.33" y="0.41" width="26.18" height="26.18"/><path class="c" d="M204.17,171.53a.58.58,0,0,0-.55.61h0v.14a4.34,4.34,0,0,0,.08.52,5.94,5.94,0,0,1,.06,1,.68.68,0,0,1-.18.28v.23a8.46,8.46,0,0,0-1,.15,7.05,7.05,0,0,0-3.56,2l-.19-.14a.39.39,0,0,1-.33,0,5.23,5.23,0,0,1-.73-.66,4.19,4.19,0,0,0-.36-.38l-.12-.1a.62.62,0,0,0-.38-.14.5.5,0,0,0-.43.19.57.57,0,0,0,.13.8h0l.11.09c.16.12.3.17.45.27a4.72,4.72,0,0,1,.81.56.56.56,0,0,1,.11.32l.18.15a7,7,0,0,0-1.11,4.92l-.23.07a.88.88,0,0,1-.24.23,4.9,4.9,0,0,1-1,.16c-.18,0-.34,0-.53,0l-.14,0h0a.55.55,0,1,0,.24,1.06h0l.14,0c.18,0,.32-.13.49-.19a4.9,4.9,0,0,1,.95-.28.55.55,0,0,1,.31.11l.24,0a7.07,7.07,0,0,0,3.14,3.92l-.1.24a.67.67,0,0,1,.05.31,5.47,5.47,0,0,1-.5.88,4.78,4.78,0,0,0-.29.44l-.07.15a.57.57,0,0,0,.23.77.59.59,0,0,0,.76-.31h0a.84.84,0,0,0,.06-.14,3.6,3.6,0,0,0,.16-.5,4.07,4.07,0,0,1,.42-1,.48.48,0,0,1,.24-.11l.12-.22a7.09,7.09,0,0,0,4.09.29,6.84,6.84,0,0,0,.94-.28c0,.06.1.18.11.21a.39.39,0,0,1,.28.17,5.31,5.31,0,0,1,.38.91,4.74,4.74,0,0,0,.15.5l.07.14a.59.59,0,0,0,.76.31.58.58,0,0,0,.23-.77l-.07-.15a3.61,3.61,0,0,0-.3-.43,6.58,6.58,0,0,1-.48-.87.47.47,0,0,1,0-.32s-.06-.16-.09-.22a7.07,7.07,0,0,0,3.14-4l.23,0a.48.48,0,0,1,.31-.11,4.9,4.9,0,0,1,1,.28,3.54,3.54,0,0,0,.49.18l.14,0h0a.55.55,0,1,0,.24-1.06l-.16,0a4.73,4.73,0,0,0-.52,0,5,5,0,0,1-1-.16.65.65,0,0,1-.23-.24l-.22-.06a7,7,0,0,0-.12-2.54,7,7,0,0,0-1-2.36l.2-.18a.4.4,0,0,1,.1-.31,4.72,4.72,0,0,1,.81-.56c.15-.1.3-.15.45-.27l.12-.1a.57.57,0,0,0,.13-.8.58.58,0,0,0-.81-.05l-.12.1a3.19,3.19,0,0,0-.36.38,5.23,5.23,0,0,1-.73.66.58.58,0,0,1-.33,0l-.21.15a7.17,7.17,0,0,0-4.52-2.19c0-.07,0-.2,0-.24a.44.44,0,0,1-.17-.27,4.37,4.37,0,0,1,.06-1,4.34,4.34,0,0,0,.07-.52v-.15a.58.58,0,0,0-.54-.61Zm-.68,4.23-.17,2.85h0a.48.48,0,0,1-.48.46.47.47,0,0,1-.28-.09h0l-2.34-1.66a5.58,5.58,0,0,1,2.7-1.47A4,4,0,0,1,203.49,175.76Zm1.36,0a5.6,5.6,0,0,1,3.26,1.57L205.79,179h0a.49.49,0,0,1-.77-.37h0Zm-5.5,2.64,2.14,1.91h0a.48.48,0,0,1,.06.66.47.47,0,0,1-.25.17h0l-2.74.79A5.62,5.62,0,0,1,199.35,178.4Zm9.62,0a5.75,5.75,0,0,1,.7,1.71,5.69,5.69,0,0,1,.12,1.83l-2.76-.8h0a.47.47,0,0,1-.34-.57.46.46,0,0,1,.15-.25h0l2.13-1.9Zm-5.24,2.06h.87l.55.68-.2.85-.78.38-.79-.38-.2-.85Zm2.81,2.33h.11l2.84.48a5.6,5.6,0,0,1-2.27,2.85l-1.1-2.66h0a.48.48,0,0,1,.23-.62.45.45,0,0,1,.19-.05Zm-4.77,0a.49.49,0,0,1,.47.37.5.5,0,0,1,0,.3h0l-1.09,2.63a5.66,5.66,0,0,1-2.27-2.83l2.82-.48h.09Zm2.38,1.15a.54.54,0,0,1,.22.05.5.5,0,0,1,.22.21h0l1.39,2.5a5.12,5.12,0,0,1-.56.15,5.59,5.59,0,0,1-3.07-.15l1.38-2.5h0A.5.5,0,0,1,204.15,184Z" transform="translate(0.25 -167.41)"/><rect class="d" x="399.93" y="118.58" width="78.53" height="26.18"/><path class="c" d="M434.26,297.1a2.72,2.72,0,0,1-1,2.24,4.23,4.23,0,0,1-2.73.78h-1v3.5h-1.52v-9.35h2.69a4.05,4.05,0,0,1,2.62.72A2.58,2.58,0,0,1,434.26,297.1Zm-4.66,1.74h.81a2.94,2.94,0,0,0,1.73-.41,1.49,1.49,0,0,0,.55-1.28,1.43,1.43,0,0,0-.49-1.2,2.41,2.41,0,0,0-1.54-.4H429.6Z" transform="translate(0.25 -167.41)"/><path class="c" d="M442.24,300.07a3.87,3.87,0,0,1-.89,2.7,3.17,3.17,0,0,1-2.47,1,3.51,3.51,0,0,1-1.76-.44A3,3,0,0,1,436,302a4.26,4.26,0,0,1-.41-1.94,3.84,3.84,0,0,1,.88-2.69,3.2,3.2,0,0,1,2.48-1,3.09,3.09,0,0,1,2.43,1A3.79,3.79,0,0,1,442.24,300.07Zm-5.15,0c0,1.63.61,2.45,1.81,2.45s1.79-.82,1.79-2.45-.6-2.42-1.8-2.42a1.55,1.55,0,0,0-1.37.62A3.15,3.15,0,0,0,437.09,300.07Z" transform="translate(0.25 -167.41)"/><path class="c" d="M446.35,303.74a2.49,2.49,0,0,1-2.07-.95,4.36,4.36,0,0,1-.74-2.7,4.31,4.31,0,0,1,.75-2.7,2.48,2.48,0,0,1,2.08-1,2.42,2.42,0,0,1,2.12,1h.08a9.57,9.57,0,0,1-.11-1.2v-2.58H450v9.95h-1.18l-.26-.93h-.07A2.39,2.39,0,0,1,446.35,303.74Zm.4-1.21a1.62,1.62,0,0,0,1.35-.52,2.77,2.77,0,0,0,.43-1.69v-.21a3.17,3.17,0,0,0-.43-1.9,1.6,1.6,0,0,0-1.36-.56,1.37,1.37,0,0,0-1.22.64,4.11,4.11,0,0,0,0,3.62A1.42,1.42,0,0,0,446.75,302.53Z" transform="translate(0.25 -167.41)"/><path class="e" d="M136.93,243.1a.93.93,0,0,1,0,1.34l-2.8,2.81-1.35-1.35,1.18-1.18h-6.87v-1.9H134l-1.18-1.18,1.35-1.35Zm2.78,11.39h3.1v-3.1h-3.1Zm4-5h-5a.94.94,0,0,0-.95.95v5a1,1,0,0,0,.95,1h5a1,1,0,0,0,1-1v-5a1,1,0,0,0-1-.95Zm-17.71-10.73,7-3.67-1.5-.41.5-1.83,3.83,1a1,1,0,0,1,.67,1.17l-1,3.83-1.84-.49.47-1.72-7.16,3.78Zm13.66-2.61h3.1v-3.1h-3.1Zm4-5h-5a.94.94,0,0,0-.95.95v5a.94.94,0,0,0,.95,1h5a1,1,0,0,0,1-1v-5a1,1,0,0,0-1-.95ZM117.17,247h6.38v-6.38h-6.38Zm7.33-8.28h-8.28a.94.94,0,0,0-1,.95v8.28a.94.94,0,0,0,1,1h8.28a.94.94,0,0,0,1-1v-8.28a.94.94,0,0,0-1-.95Zm12,13.81a1,1,0,0,1-.67,1.17l-3.83,1-.5-1.84,1.5-.41-7-3.67.89-1.68,7.16,3.77-.47-1.71,1.84-.5Zm3.2-7.17h3.1v-3.1h-3.1Zm4-5h-5a.94.94,0,0,0-.95,1v5a.94.94,0,0,0,.95.95h5a1,1,0,0,0,1-.95v-5a1,1,0,0,0-1-1Z" transform="translate(0.25 -167.41)"/><path class="f" d="M115.23,272.06h-4v-7h4v1h-2.81v1.91h2.64v1h-2.64v2.2h2.81Z" transform="translate(0.25 -167.41)"/><path class="f" d="M117.81,269.35,116,266.76h1.28l1.21,1.86,1.22-1.86H121l-1.78,2.59,1.87,2.71h-1.27l-1.31-2-1.3,2h-1.28Z" transform="translate(0.25 -167.41)"/><path class="f" d="M124,271.25a2.92,2.92,0,0,0,.82-.13V272a2,2,0,0,1-.48.13,3,3,0,0,1-.61.06c-1.07,0-1.6-.56-1.6-1.69v-2.86h-.72v-.49l.77-.42.39-1.12h.69v1.18h1.51v.85h-1.51v2.84a.78.78,0,0,0,.21.6A.72.72,0,0,0,124,271.25Z" transform="translate(0.25 -167.41)"/><path class="f" d="M128.21,272.16a2.58,2.58,0,0,1-1.94-.72,2.77,2.77,0,0,1-.69-2,3,3,0,0,1,.64-2,2.24,2.24,0,0,1,1.78-.74,2.21,2.21,0,0,1,1.66.63,2.43,2.43,0,0,1,.61,1.76v.61h-3.53a1.7,1.7,0,0,0,.41,1.18,1.45,1.45,0,0,0,1.11.42,4.1,4.1,0,0,0,.88-.09,4.51,4.51,0,0,0,.87-.3v.92a4,4,0,0,1-.84.28A5.47,5.47,0,0,1,128.21,272.16Zm-.21-4.64a1.12,1.12,0,0,0-.86.34,1.66,1.66,0,0,0-.38,1h2.4a1.43,1.43,0,0,0-.31-1A1.09,1.09,0,0,0,128,267.52Z" transform="translate(0.25 -167.41)"/><path class="f" d="M134.24,266.67a3,3,0,0,1,.56,0l-.11,1.05a2.07,2.07,0,0,0-.5-.05,1.43,1.43,0,0,0-1.1.44,1.57,1.57,0,0,0-.41,1.14v2.77h-1.13v-5.3h.88l.15.94h.06a2.09,2.09,0,0,1,.68-.76A1.7,1.7,0,0,1,134.24,266.67Z" transform="translate(0.25 -167.41)"/><path class="f" d="M140.44,272.06h-1.13V268.8a1.43,1.43,0,0,0-.24-.91,1,1,0,0,0-.79-.3,1.25,1.25,0,0,0-1,.42,2.32,2.32,0,0,0-.33,1.41v2.64h-1.13v-5.3h.88l.16.7h.06a1.57,1.57,0,0,1,.68-.59,2.23,2.23,0,0,1,1-.2,1.69,1.69,0,0,1,1.9,1.94Z" transform="translate(0.25 -167.41)"/><path class="f" d="M145.33,272.06l-.23-.74h0a2.08,2.08,0,0,1-.78.66,2.34,2.34,0,0,1-1,.18,1.69,1.69,0,0,1-1.22-.42,1.59,1.59,0,0,1-.44-1.2,1.38,1.38,0,0,1,.61-1.23,3.5,3.5,0,0,1,1.85-.46l.92,0v-.28a1.07,1.07,0,0,0-.24-.76,1,1,0,0,0-.74-.25,2.54,2.54,0,0,0-.78.12,5.66,5.66,0,0,0-.72.28l-.36-.8a4.05,4.05,0,0,1,.94-.35,4.31,4.31,0,0,1,1-.11,2.25,2.25,0,0,1,1.53.44,1.72,1.72,0,0,1,.51,1.38v3.57Zm-1.68-.76a1.41,1.41,0,0,0,1-.35,1.27,1.27,0,0,0,.37-1v-.46l-.68,0a2.32,2.32,0,0,0-1.16.27.8.8,0,0,0-.36.72.71.71,0,0,0,.21.55A.9.9,0,0,0,143.65,271.3Z" transform="translate(0.25 -167.41)"/><path class="f" d="M148.83,272.06h-1.12V264.6h1.12Z" transform="translate(0.25 -167.41)"/><path class="f" d="M97.29,283.92v-7h1.14v6h3v1Z" transform="translate(0.25 -167.41)"/><path class="f" d="M107.19,281.26a2.86,2.86,0,0,1-.67,2,2.36,2.36,0,0,1-1.85.73,2.5,2.5,0,0,1-1.32-.34,2.14,2.14,0,0,1-.87-1,3.2,3.2,0,0,1-.31-1.46,2.86,2.86,0,0,1,.66-2,2.4,2.4,0,0,1,1.87-.72,2.32,2.32,0,0,1,1.82.74A2.88,2.88,0,0,1,107.19,281.26Zm-3.86,0c0,1.23.45,1.84,1.36,1.84s1.34-.61,1.34-1.84-.45-1.81-1.35-1.81a1.13,1.13,0,0,0-1,.47A2.39,2.39,0,0,0,103.33,281.26Z" transform="translate(0.25 -167.41)"/><path class="f" d="M111.8,283.92l-.23-.73h0a2.14,2.14,0,0,1-.78.65,2.37,2.37,0,0,1-1,.18,1.69,1.69,0,0,1-1.22-.42,1.56,1.56,0,0,1-.44-1.2,1.39,1.39,0,0,1,.61-1.23,3.5,3.5,0,0,1,1.85-.46l.92,0v-.28a1.07,1.07,0,0,0-.24-.76,1,1,0,0,0-.74-.25,2.54,2.54,0,0,0-.78.12,5.66,5.66,0,0,0-.72.28l-.36-.8a4.05,4.05,0,0,1,.94-.35,5,5,0,0,1,1-.11,2.25,2.25,0,0,1,1.53.44,1.72,1.72,0,0,1,.51,1.38v3.57Zm-1.68-.76a1.41,1.41,0,0,0,1-.35,1.24,1.24,0,0,0,.37-1v-.46l-.68,0a2.32,2.32,0,0,0-1.16.27.81.81,0,0,0-.36.72.71.71,0,0,0,.21.55A.9.9,0,0,0,110.12,283.16Z" transform="translate(0.25 -167.41)"/><path class="f" d="M116,284a1.83,1.83,0,0,1-1.54-.72,3.24,3.24,0,0,1-.56-2,3.29,3.29,0,0,1,.56-2,1.88,1.88,0,0,1,1.56-.72,1.8,1.8,0,0,1,1.59.77h.06a7.5,7.5,0,0,1-.08-.9v-1.93h1.13v7.45h-.88l-.2-.69h0A1.79,1.79,0,0,1,116,284Zm.31-.91a1.23,1.23,0,0,0,1-.39,2,2,0,0,0,.32-1.27v-.16a2.42,2.42,0,0,0-.32-1.42,1.22,1.22,0,0,0-1-.42,1,1,0,0,0-.92.48,2.5,2.5,0,0,0-.32,1.37,2.41,2.41,0,0,0,.31,1.35A1.05,1.05,0,0,0,116.27,283.11Z" transform="translate(0.25 -167.41)"/><path class="f" d="M123,276.92H125a3.94,3.94,0,0,1,2.09.42,1.47,1.47,0,0,1,.65,1.33,1.61,1.61,0,0,1-.32,1,1.4,1.4,0,0,1-.91.51v.05a1.83,1.83,0,0,1,1.09.55,1.66,1.66,0,0,1,.35,1.11,1.8,1.8,0,0,1-.66,1.48,2.82,2.82,0,0,1-1.84.53H123Zm1.15,2.89h1.1a1.82,1.82,0,0,0,1.05-.23.87.87,0,0,0,.33-.77.76.76,0,0,0-.36-.71,2.16,2.16,0,0,0-1.13-.22h-1Zm0,.93V283h1.22a1.74,1.74,0,0,0,1.08-.28,1,1,0,0,0,.37-.87.94.94,0,0,0-.38-.81,2,2,0,0,0-1.13-.26Z" transform="translate(0.25 -167.41)"/><path class="f" d="M132.64,283.92l-.23-.73h0a2.14,2.14,0,0,1-.78.65,2.34,2.34,0,0,1-1,.18,1.69,1.69,0,0,1-1.22-.42,1.59,1.59,0,0,1-.44-1.2,1.39,1.39,0,0,1,.61-1.23,3.5,3.5,0,0,1,1.85-.46l.92,0v-.28a1.07,1.07,0,0,0-.24-.76,1,1,0,0,0-.74-.25,2.54,2.54,0,0,0-.78.12,5.66,5.66,0,0,0-.72.28l-.36-.8a4,4,0,0,1,.95-.35,4.79,4.79,0,0,1,1-.11,2.25,2.25,0,0,1,1.53.44,1.72,1.72,0,0,1,.51,1.38v3.57Zm-1.68-.76a1.41,1.41,0,0,0,1-.35,1.24,1.24,0,0,0,.37-1v-.46l-.68,0a2.32,2.32,0,0,0-1.16.27.81.81,0,0,0-.36.72.71.71,0,0,0,.21.55A.9.9,0,0,0,131,283.16Z" transform="translate(0.25 -167.41)"/><path class="f" d="M136.14,283.92H135v-7.45h1.12Z" transform="translate(0.25 -167.41)"/><path class="f" d="M141.07,283.92l-.22-.73h0a2.2,2.2,0,0,1-.77.65,2.42,2.42,0,0,1-1,.18,1.69,1.69,0,0,1-1.22-.42,1.59,1.59,0,0,1-.44-1.2,1.39,1.39,0,0,1,.61-1.23,3.5,3.5,0,0,1,1.85-.46l.92,0v-.28a1.07,1.07,0,0,0-.24-.76,1,1,0,0,0-.73-.25,2.56,2.56,0,0,0-.79.12,6.15,6.15,0,0,0-.71.28l-.37-.8a4,4,0,0,1,1-.35,4.79,4.79,0,0,1,1-.11,2.25,2.25,0,0,1,1.53.44,1.72,1.72,0,0,1,.52,1.38v3.57Zm-1.68-.76a1.41,1.41,0,0,0,1-.35,1.21,1.21,0,0,0,.37-1v-.46l-.68,0a2.32,2.32,0,0,0-1.16.27.81.81,0,0,0-.36.72.71.71,0,0,0,.21.55A.9.9,0,0,0,139.39,283.16Z" transform="translate(0.25 -167.41)"/><path class="f" d="M148.11,283.92H147v-3.26a1.39,1.39,0,0,0-.25-.91.94.94,0,0,0-.78-.3,1.23,1.23,0,0,0-1,.42,2.31,2.31,0,0,0-.34,1.41v2.64h-1.12v-5.3h.88l.16.7h.06a1.58,1.58,0,0,1,.68-.59,2.37,2.37,0,0,1,1-.2,1.7,1.7,0,0,1,1.91,1.94Z" transform="translate(0.25 -167.41)"/><path class="f" d="M151.82,284a2.32,2.32,0,0,1-1.83-.7,3.53,3.53,0,0,1,0-4.07,2.41,2.41,0,0,1,1.89-.72,3.52,3.52,0,0,1,1.51.31l-.34.9a3.52,3.52,0,0,0-1.18-.27c-.92,0-1.38.61-1.38,1.82a2.17,2.17,0,0,0,.35,1.34,1.17,1.17,0,0,0,1,.45,2.84,2.84,0,0,0,1.42-.37v1a2.08,2.08,0,0,1-.64.25A4,4,0,0,1,151.82,284Z" transform="translate(0.25 -167.41)"/><path class="f" d="M156.85,284a2.57,2.57,0,0,1-1.93-.72,2.76,2.76,0,0,1-.7-2,3,3,0,0,1,.65-2,2.51,2.51,0,0,1,3.44-.11,2.48,2.48,0,0,1,.61,1.76v.61h-3.54a1.75,1.75,0,0,0,.42,1.18,1.44,1.44,0,0,0,1.11.42,4,4,0,0,0,.87-.09,5.21,5.21,0,0,0,.87-.29v.91a3.69,3.69,0,0,1-.83.28A5.5,5.5,0,0,1,156.85,284Zm-.2-4.64a1.11,1.11,0,0,0-.86.34,1.6,1.6,0,0,0-.39,1h2.41a1.43,1.43,0,0,0-.32-1A1.05,1.05,0,0,0,156.65,279.38Z" transform="translate(0.25 -167.41)"/><path class="f" d="M162.88,278.53a3,3,0,0,1,.57,0l-.12,1.05a2.54,2.54,0,0,0-.49-.05,1.43,1.43,0,0,0-1.1.44,1.57,1.57,0,0,0-.42,1.14v2.77H160.2v-5.3h.88l.15.94h.05a2.21,2.21,0,0,1,.69-.76A1.67,1.67,0,0,1,162.88,278.53Z" transform="translate(0.25 -167.41)"/><path class="f" d="M4.32,280.6H3.17v-6H1.11v-1H6.38v1H4.32Z" transform="translate(0.25 -167.41)"/><path class="f" d="M10,275.2a2.23,2.23,0,0,1,.56.05l-.11,1.05a2.07,2.07,0,0,0-.5-.06,1.45,1.45,0,0,0-1.09.44,1.6,1.6,0,0,0-.42,1.15v2.77H7.33v-5.31h.88l.15.94h.06a1.92,1.92,0,0,1,.69-.75A1.58,1.58,0,0,1,10,275.2Z" transform="translate(0.25 -167.41)"/><path class="f" d="M14.88,280.6l-.23-.74h0a2.29,2.29,0,0,1-.78.66,2.52,2.52,0,0,1-1,.17,1.69,1.69,0,0,1-1.22-.42,1.58,1.58,0,0,1-.44-1.19,1.4,1.4,0,0,1,.61-1.24,3.5,3.5,0,0,1,1.85-.46l.92,0v-.29a1.07,1.07,0,0,0-.24-.76,1,1,0,0,0-.73-.25,2.56,2.56,0,0,0-.79.12,7.49,7.49,0,0,0-.71.28l-.37-.8a3.57,3.57,0,0,1,.95-.34,4.2,4.2,0,0,1,1-.12,2.31,2.31,0,0,1,1.53.44,1.74,1.74,0,0,1,.52,1.38v3.58Zm-1.68-.77a1.45,1.45,0,0,0,1-.34,1.24,1.24,0,0,0,.37-1v-.47l-.68,0a2.32,2.32,0,0,0-1.16.27.81.81,0,0,0-.36.73.7.7,0,0,0,.21.54A.9.9,0,0,0,13.2,279.83Z" transform="translate(0.25 -167.41)"/><path class="f" d="M19.92,276.15h-1.3v4.45H17.49v-4.45h-.87v-.53l.87-.34v-.35a1.93,1.93,0,0,1,.44-1.39,1.84,1.84,0,0,1,1.35-.46,3.6,3.6,0,0,1,1.17.2l-.3.85a2.56,2.56,0,0,0-.79-.13.65.65,0,0,0-.56.24,1.16,1.16,0,0,0-.18.71v.34h1.3Zm3.56,0h-1.3v4.45H21.05v-4.45h-.87v-.53l.87-.34v-.35a1.93,1.93,0,0,1,.44-1.39,1.84,1.84,0,0,1,1.35-.46,3.6,3.6,0,0,1,1.17.2l-.3.85a2.51,2.51,0,0,0-.79-.13.65.65,0,0,0-.56.24,1.16,1.16,0,0,0-.18.71v.34h1.3Zm.84-2.26a.64.64,0,0,1,.16-.47.69.69,0,0,1,.48-.16.67.67,0,0,1,.46.16.64.64,0,0,1,.16.47.61.61,0,0,1-.16.45.64.64,0,0,1-.46.17.65.65,0,0,1-.48-.17A.61.61,0,0,1,24.32,273.89Zm1.19,6.71H24.38v-5.31h1.13Z" transform="translate(0.25 -167.41)"/><path class="f" d="M29.26,280.69a2.32,2.32,0,0,1-1.83-.7,3.58,3.58,0,0,1,0-4.07,2.43,2.43,0,0,1,1.89-.72,3.52,3.52,0,0,1,1.51.31l-.34.91a3.34,3.34,0,0,0-1.18-.28c-.92,0-1.37.61-1.37,1.82a2.17,2.17,0,0,0,.34,1.34,1.18,1.18,0,0,0,1,.45,2.9,2.9,0,0,0,1.43-.37v1a2.6,2.6,0,0,1-.65.26A4,4,0,0,1,29.26,280.69Z" transform="translate(0.25 -167.41)"/><path class="d" d="M8.91,251.56H.44a.69.69,0,0,1-.69-.69v-1a8.26,8.26,0,0,1,6.32-8.05.74.74,0,0,1,.5.07,3.58,3.58,0,0,0,3.42,0,.72.72,0,0,1,.5-.07A8.51,8.51,0,0,1,13.14,243l-.78,1.16a6.75,6.75,0,0,0-1.95-.89,5,5,0,0,1-4.26,0,6.88,6.88,0,0,0-5,6.61v.34H8.91Z" transform="translate(0.25 -167.41)"/><path class="d" d="M8.27,243.66a4.56,4.56,0,0,1,0-9.12h0a4.56,4.56,0,0,1,2.21,8.56h0A4.62,4.62,0,0,1,8.27,243.66Zm0-7.73a3.2,3.2,0,0,0-3.21,3.17,3.16,3.16,0,0,0,1.66,2.78,3.22,3.22,0,0,0,3.1,0h0a3.16,3.16,0,0,0-1.55-5.94Z" transform="translate(0.25 -167.41)"/><path class="d" d="M31.72,251.56H23.25v-1.39H31v-.34a6.86,6.86,0,0,0-5-6.61,5,5,0,0,1-4.26,0,6.76,6.76,0,0,0-2,.93L19,243a7.94,7.94,0,0,1,2.66-1.22.72.72,0,0,1,.5.06,3.62,3.62,0,0,0,3.44,0,.7.7,0,0,1,.49-.06,8.27,8.27,0,0,1,6.33,8v1A.68.68,0,0,1,31.72,251.56Z" transform="translate(0.25 -167.41)"/><path class="d" d="M23.86,243.66a4.59,4.59,0,1,1,2.21-.56h0A4.56,4.56,0,0,1,23.86,243.66Zm0-7.73a3.19,3.19,0,0,0-3.2,3.17,3.15,3.15,0,0,0,1.65,2.78,3.22,3.22,0,0,0,3.1,0h0a3.16,3.16,0,0,0-1.55-5.95Z" transform="translate(0.25 -167.41)"/><path class="d" d="M27.16,267.19H5a.7.7,0,0,1-.7-.69V265A11.41,11.41,0,0,1,13,253.91a.67.67,0,0,1,.5.06,5.44,5.44,0,0,0,5.14,0,.68.68,0,0,1,.5-.06A11.38,11.38,0,0,1,27.85,265v1.47a.69.69,0,0,1-.69.69ZM5.65,265.8H26.46V265A10,10,0,0,0,19,255.34a6.82,6.82,0,0,1-6,0A10,10,0,0,0,5.65,265Z" transform="translate(0.25 -167.41)"/><path class="d" d="M16.08,256a6.25,6.25,0,1,1,5.48-3.25,6.28,6.28,0,0,1-2.49,2.49h0A6.27,6.27,0,0,1,16.08,256Zm0-10.94a4.77,4.77,0,0,0-2.34,9,4.88,4.88,0,0,0,4.66,0h0a4.76,4.76,0,0,0-2.32-9Z" transform="translate(0.25 -167.41)"/><rect class="d" x="399.93" y="75.18" width="78.53" height="26.18"/><path class="c" d="M434.26,253.71a2.72,2.72,0,0,1-1,2.24,4.23,4.23,0,0,1-2.73.78h-1v3.5h-1.52v-9.35h2.69a4.05,4.05,0,0,1,2.62.72A2.58,2.58,0,0,1,434.26,253.71Zm-4.66,1.74h.81a2.94,2.94,0,0,0,1.73-.41,1.49,1.49,0,0,0,.55-1.28,1.43,1.43,0,0,0-.49-1.2,2.41,2.41,0,0,0-1.54-.4H429.6Z" transform="translate(0.25 -167.41)"/><path class="c" d="M442.24,256.68a3.87,3.87,0,0,1-.89,2.7,3.17,3.17,0,0,1-2.47,1,3.51,3.51,0,0,1-1.76-.44,3,3,0,0,1-1.16-1.29,4.26,4.26,0,0,1-.41-1.94,3.84,3.84,0,0,1,.88-2.69,3.2,3.2,0,0,1,2.48-1,3.09,3.09,0,0,1,2.43,1A3.79,3.79,0,0,1,442.24,256.68Zm-5.15,0c0,1.63.61,2.45,1.81,2.45s1.79-.82,1.79-2.45-.6-2.42-1.8-2.42a1.55,1.55,0,0,0-1.37.62A3.15,3.15,0,0,0,437.09,256.68Z" transform="translate(0.25 -167.41)"/><path class="c" d="M446.35,260.35a2.47,2.47,0,0,1-2.07-1,5.25,5.25,0,0,1,0-5.39,2.48,2.48,0,0,1,2.08-1,2.42,2.42,0,0,1,2.12,1h.08a9.57,9.57,0,0,1-.11-1.2v-2.58H450v10h-1.18l-.26-.93h-.07A2.39,2.39,0,0,1,446.35,260.35Zm.4-1.21a1.62,1.62,0,0,0,1.35-.52,2.77,2.77,0,0,0,.43-1.69v-.21a3.17,3.17,0,0,0-.43-1.9,1.6,1.6,0,0,0-1.36-.56,1.37,1.37,0,0,0-1.22.64,4.11,4.11,0,0,0,0,3.62A1.42,1.42,0,0,0,446.75,259.14Z" transform="translate(0.25 -167.41)"/><rect class="d" x="399.93" y="31.79" width="78.53" height="26.18"/><path class="c" d="M434.26,210.32a2.72,2.72,0,0,1-1,2.24,4.23,4.23,0,0,1-2.73.78h-1v3.49h-1.52v-9.34h2.69a4.05,4.05,0,0,1,2.62.72A2.56,2.56,0,0,1,434.26,210.32Zm-4.66,1.73h.81a2.94,2.94,0,0,0,1.73-.4,1.49,1.49,0,0,0,.55-1.28,1.43,1.43,0,0,0-.49-1.2,2.41,2.41,0,0,0-1.54-.4H429.6Z" transform="translate(0.25 -167.41)"/><path class="c" d="M442.24,213.29a3.87,3.87,0,0,1-.89,2.7,3.17,3.17,0,0,1-2.47,1,3.51,3.51,0,0,1-1.76-.44,3,3,0,0,1-1.16-1.29,4.29,4.29,0,0,1-.41-1.94,3.84,3.84,0,0,1,.88-2.69,3.2,3.2,0,0,1,2.48-1,3.09,3.09,0,0,1,2.43,1A3.78,3.78,0,0,1,442.24,213.29Zm-5.15,0c0,1.63.61,2.45,1.81,2.45s1.79-.82,1.79-2.45-.6-2.42-1.8-2.42a1.52,1.52,0,0,0-1.37.62A3.15,3.15,0,0,0,437.09,213.29Z" transform="translate(0.25 -167.41)"/><path class="c" d="M446.35,217a2.47,2.47,0,0,1-2.07-1,5.25,5.25,0,0,1,0-5.39,2.48,2.48,0,0,1,2.08-1,2.42,2.42,0,0,1,2.12,1h.08a9.57,9.57,0,0,1-.11-1.2v-2.58H450v9.94h-1.18l-.26-.92h-.07A2.39,2.39,0,0,1,446.35,217Zm.4-1.21a1.66,1.66,0,0,0,1.35-.52,2.77,2.77,0,0,0,.43-1.69v-.21a3.17,3.17,0,0,0-.43-1.9,1.6,1.6,0,0,0-1.36-.56,1.37,1.37,0,0,0-1.22.64,4.11,4.11,0,0,0,0,3.62A1.42,1.42,0,0,0,446.75,215.75Z" transform="translate(0.25 -167.41)"/><path class="f" d="M309.22,282.16a1.75,1.75,0,0,1-.68,1.46,2.9,2.9,0,0,1-1.86.54,4.55,4.55,0,0,1-1.95-.37V282.7a5.59,5.59,0,0,0,1,.36,4.1,4.1,0,0,0,1,.13,1.63,1.63,0,0,0,1-.26.9.9,0,0,0,0-1.36,4.5,4.5,0,0,0-1.22-.65,3.16,3.16,0,0,1-1.35-.89,1.82,1.82,0,0,1-.4-1.19,1.68,1.68,0,0,1,.62-1.38,2.59,2.59,0,0,1,1.68-.51,5,5,0,0,1,2,.44l-.36.94a4.47,4.47,0,0,0-1.67-.4,1.28,1.28,0,0,0-.84.25.77.77,0,0,0-.29.64,1,1,0,0,0,.11.46,1.22,1.22,0,0,0,.38.37,6.05,6.05,0,0,0,.95.46,4.71,4.71,0,0,1,1.13.6,1.71,1.71,0,0,1,.53.62A2,2,0,0,1,309.22,282.16Z" transform="translate(0.25 -167.41)"/><path class="f" d="M312.77,284.16a2.55,2.55,0,0,1-1.94-.73,2.74,2.74,0,0,1-.69-2,3,3,0,0,1,.64-2,2.25,2.25,0,0,1,1.78-.75,2.2,2.2,0,0,1,1.66.64,2.43,2.43,0,0,1,.61,1.76v.6H311.3a1.73,1.73,0,0,0,.41,1.19,1.46,1.46,0,0,0,1.11.41,4.12,4.12,0,0,0,.88-.08,4.51,4.51,0,0,0,.87-.3v.92a4,4,0,0,1-.84.28A5.47,5.47,0,0,1,312.77,284.16Zm-.21-4.64a1.14,1.14,0,0,0-.86.34,1.63,1.63,0,0,0-.38,1h2.4a1.48,1.48,0,0,0-.31-1A1.11,1.11,0,0,0,312.56,279.52Z" transform="translate(0.25 -167.41)"/><path class="f" d="M318.8,278.66a2.9,2.9,0,0,1,.56,0l-.11,1.05a2.07,2.07,0,0,0-.5-.06,1.47,1.47,0,0,0-1.1.44,1.65,1.65,0,0,0-.41,1.15v2.77h-1.13v-5.3H317l.15.93h.06a2.14,2.14,0,0,1,.68-.75A1.71,1.71,0,0,1,318.8,278.66Z" transform="translate(0.25 -167.41)"/><path class="f" d="M321.55,284.06l-2-5.3h1.18l1.08,3.08a6,6,0,0,1,.34,1.26h0a9.14,9.14,0,0,1,.33-1.26l1.08-3.08h1.2l-2,5.3Z" transform="translate(0.25 -167.41)"/><path class="f" d="M325.53,277.35a.61.61,0,0,1,.16-.46.65.65,0,0,1,.48-.16.63.63,0,0,1,.46.16.74.74,0,0,1,0,.92.63.63,0,0,1-.46.16.65.65,0,0,1-.48-.16A.61.61,0,0,1,325.53,277.35Zm1.19,6.71H325.6v-5.3h1.12Z" transform="translate(0.25 -167.41)"/><path class="f" d="M330.47,284.16a2.33,2.33,0,0,1-1.83-.71,2.9,2.9,0,0,1-.62-2,2.94,2.94,0,0,1,.65-2.06,2.43,2.43,0,0,1,1.89-.72,3.67,3.67,0,0,1,1.51.31l-.34.91a3.58,3.58,0,0,0-1.18-.28q-1.38,0-1.38,1.83a2.19,2.19,0,0,0,.35,1.34,1.18,1.18,0,0,0,1,.45,2.92,2.92,0,0,0,1.43-.38v1a2.57,2.57,0,0,1-.65.25A4,4,0,0,1,330.47,284.16Z" transform="translate(0.25 -167.41)"/><path class="f" d="M335.51,284.16a2.55,2.55,0,0,1-1.94-.73,2.74,2.74,0,0,1-.69-2,3,3,0,0,1,.64-2,2.48,2.48,0,0,1,3.44-.11,2.43,2.43,0,0,1,.61,1.76v.6H334a1.73,1.73,0,0,0,.41,1.19,1.43,1.43,0,0,0,1.11.41,4,4,0,0,0,.87-.08,4.51,4.51,0,0,0,.87-.3v.92a3.69,3.69,0,0,1-.83.28A5.47,5.47,0,0,1,335.51,284.16Zm-.21-4.64a1.12,1.12,0,0,0-.86.34,1.64,1.64,0,0,0-.39,1h2.41a1.48,1.48,0,0,0-.32-1A1.08,1.08,0,0,0,335.3,279.52Z" transform="translate(0.25 -167.41)"/><rect class="g" x="305.04" y="70.28" width="32.72" height="32.72"/><path class="h" d="M317.06,259.36a5.32,5.32,0,1,1,5.31-5.32,5.32,5.32,0,0,1-5.31,5.32m12.27,2.46a1.64,1.64,0,1,1-1.64-1.64,1.64,1.64,0,0,1,1.64,1.64m-1.64-17.18a1.64,1.64,0,1,1-1.64,1.63,1.64,1.64,0,0,1,1.64-1.63m1.23,7.77a1.64,1.64,0,1,1-1.64,1.63,1.63,1.63,0,0,1,1.64-1.63m-5.75,2h3.33a2.46,2.46,0,1,0,0-.81h-3.33a6.15,6.15,0,0,0-.56-2.19l3.63-3.2a2.43,2.43,0,0,0,1.45.48,2.46,2.46,0,1,0-2-1.07l-3.47,3.05a6.14,6.14,0,1,0,0,6.66l3.47,3.06a2.45,2.45,0,1,0,2-1.07,2.43,2.43,0,0,0-1.45.48l-3.63-3.2a6.15,6.15,0,0,0,.56-2.19" transform="translate(0.25 -167.41)"/><rect class="i" x="227.71" y="47.24" width="65.44" height="26.18"/><path class="j" d="M242.3,230.63h-1.88l-4.59-7.44h-.05l0,.41c.06.8.09,1.52.09,2.18v4.85h-1.39v-9.34h1.86L241,228.7h0c0-.1,0-.46-.06-1.07s0-1.1,0-1.44v-4.9h1.4Z" transform="translate(0.25 -167.41)"/><path class="j" d="M250.87,227.09a3.83,3.83,0,0,1-.89,2.7,3.16,3.16,0,0,1-2.47,1,3.47,3.47,0,0,1-1.75-.44,2.93,2.93,0,0,1-1.17-1.29,4.4,4.4,0,0,1-.41-1.94,3.89,3.89,0,0,1,.88-2.69,3.22,3.22,0,0,1,2.49-1,3.12,3.12,0,0,1,2.43,1A3.82,3.82,0,0,1,250.87,227.09Zm-5.14,0c0,1.63.6,2.45,1.81,2.45s1.79-.82,1.79-2.45-.6-2.42-1.81-2.42a1.53,1.53,0,0,0-1.37.62A3.24,3.24,0,0,0,245.73,227.09Z" transform="translate(0.25 -167.41)"/><path class="j" d="M255,230.76a2.45,2.45,0,0,1-2.06-1,4.24,4.24,0,0,1-.74-2.69,4.29,4.29,0,0,1,.75-2.7,2.47,2.47,0,0,1,2.08-1,2.43,2.43,0,0,1,2.12,1h.08a8,8,0,0,1-.11-1.2v-2.58h1.51v9.94h-1.18l-.26-.92h-.07A2.41,2.41,0,0,1,255,230.76Zm.4-1.21a1.62,1.62,0,0,0,1.35-.52,2.76,2.76,0,0,0,.44-1.69v-.21a3.16,3.16,0,0,0-.44-1.9,1.59,1.59,0,0,0-1.36-.56,1.38,1.38,0,0,0-1.22.64,3.34,3.34,0,0,0-.43,1.83,3.18,3.18,0,0,0,.42,1.79A1.4,1.4,0,0,0,255.38,229.55Z" transform="translate(0.25 -167.41)"/><path class="j" d="M263.84,230.76a3.42,3.42,0,0,1-2.58-1,3.64,3.64,0,0,1-.93-2.65,4,4,0,0,1,.86-2.72,3,3,0,0,1,2.37-1,2.92,2.92,0,0,1,2.22.85,3.26,3.26,0,0,1,.81,2.34v.81h-4.71a2.3,2.3,0,0,0,.55,1.58,1.93,1.93,0,0,0,1.48.55,6.12,6.12,0,0,0,1.17-.11,5.94,5.94,0,0,0,1.16-.4v1.22a4.33,4.33,0,0,1-1.12.37A6.17,6.17,0,0,1,263.84,230.76Zm-.28-6.18a1.51,1.51,0,0,0-1.14.45,2.16,2.16,0,0,0-.52,1.32h3.21a2,2,0,0,0-.42-1.32A1.45,1.45,0,0,0,263.56,224.58Z" transform="translate(0.25 -167.41)"/><path class="j" d="M275.61,230.63H274.1v-6c0-.72,0-1.29,0-1.71a4.18,4.18,0,0,1-.36.34l-1.43,1.17-.76-1,2.75-2.16h1.26Z" transform="translate(0.25 -167.41)"/><path class="f" d="M228.65,254.69h-1.4l-3.45-5.59h0l0,.32c0,.59.06,1.13.06,1.63v3.64h-1v-7h1.39l3.44,5.56h0c0-.08,0-.34,0-.81s0-.82,0-1.08v-3.67h1.05Z" transform="translate(0.25 -167.41)"/><path class="f" d="M235.08,252a2.94,2.94,0,0,1-.66,2,2.41,2.41,0,0,1-1.86.72,2.58,2.58,0,0,1-1.31-.33,2.28,2.28,0,0,1-.88-1,3.37,3.37,0,0,1-.3-1.46,2.86,2.86,0,0,1,.66-2,2.37,2.37,0,0,1,1.86-.73,2.33,2.33,0,0,1,1.82.74A2.86,2.86,0,0,1,235.08,252Zm-3.85,0q0,1.83,1.35,1.83c.9,0,1.34-.61,1.34-1.83s-.45-1.82-1.35-1.82a1.18,1.18,0,0,0-1,.47A2.41,2.41,0,0,0,231.23,252Z" transform="translate(0.25 -167.41)"/><path class="f" d="M238.17,254.78a1.86,1.86,0,0,1-1.55-.71,3.26,3.26,0,0,1-.56-2,3.2,3.2,0,0,1,.57-2,2,2,0,0,1,3.15,0h.05a7.5,7.5,0,0,1-.08-.9v-1.93h1.13v7.46H240l-.19-.7h-.06A1.79,1.79,0,0,1,238.17,254.78Zm.3-.91a1.23,1.23,0,0,0,1-.39,2.07,2.07,0,0,0,.33-1.26v-.16a2.37,2.37,0,0,0-.33-1.43,1.22,1.22,0,0,0-1-.42,1,1,0,0,0-.92.48,2.51,2.51,0,0,0-.32,1.38,2.48,2.48,0,0,0,.31,1.34A1.05,1.05,0,0,0,238.47,253.87Z" transform="translate(0.25 -167.41)"/><path class="f" d="M244.81,254.78a2.54,2.54,0,0,1-1.93-.72,2.71,2.71,0,0,1-.7-2,3,3,0,0,1,.64-2.05,2.27,2.27,0,0,1,1.78-.74,2.16,2.16,0,0,1,1.66.64,2.41,2.41,0,0,1,.61,1.75v.61h-3.53a1.73,1.73,0,0,0,.41,1.19,1.5,1.5,0,0,0,1.11.41,4,4,0,0,0,.88-.09,3.86,3.86,0,0,0,.87-.29v.91a3.08,3.08,0,0,1-.84.28A4.65,4.65,0,0,1,244.81,254.78Zm-.21-4.64a1.18,1.18,0,0,0-.86.34,1.66,1.66,0,0,0-.38,1h2.4a1.48,1.48,0,0,0-.31-1A1.12,1.12,0,0,0,244.6,250.14Z" transform="translate(0.25 -167.41)"/><path class="f" d="M252.91,249.8a2,2,0,0,1-.72,1.68,3.17,3.17,0,0,1-2.05.59h-.72v2.62h-1.15v-7h2a3.07,3.07,0,0,1,2,.54A1.94,1.94,0,0,1,252.91,249.8Zm-3.49,1.3h.6a2.25,2.25,0,0,0,1.3-.3,1.14,1.14,0,0,0,.41-1,1.07,1.07,0,0,0-.37-.9,1.8,1.8,0,0,0-1.15-.3h-.79Z" transform="translate(0.25 -167.41)"/><path class="f" d="M258.89,252a2.89,2.89,0,0,1-.67,2,2.39,2.39,0,0,1-1.85.72,2.58,2.58,0,0,1-1.31-.33,2.21,2.21,0,0,1-.88-1,3.37,3.37,0,0,1-.31-1.46,2.86,2.86,0,0,1,.66-2,2.4,2.4,0,0,1,1.87-.73,2.34,2.34,0,0,1,1.82.74A2.86,2.86,0,0,1,258.89,252ZM255,252c0,1.22.46,1.83,1.36,1.83s1.34-.61,1.34-1.83-.45-1.82-1.35-1.82a1.16,1.16,0,0,0-1,.47A2.4,2.4,0,0,0,255,252Z" transform="translate(0.25 -167.41)"/><path class="f" d="M262.88,249.29a2.9,2.9,0,0,1,.56.05l-.11,1a2.07,2.07,0,0,0-.5-.06,1.47,1.47,0,0,0-1.1.44,1.61,1.61,0,0,0-.42,1.15v2.77h-1.12v-5.3h.88l.15.93h0a2.17,2.17,0,0,1,.69-.75A1.63,1.63,0,0,1,262.88,249.29Z" transform="translate(0.25 -167.41)"/><path class="f" d="M266.39,253.87a2.66,2.66,0,0,0,.83-.13v.85a2.31,2.31,0,0,1-.48.14,3.12,3.12,0,0,1-.62.05c-1.06,0-1.6-.56-1.6-1.68v-2.86h-.72v-.5l.78-.41.38-1.12h.7v1.18h1.51v.85h-1.51v2.84a.78.78,0,0,0,.2.6A.73.73,0,0,0,266.39,253.87Z" transform="translate(0.25 -167.41)"/><path class="f" d="M274.94,249.29a1.6,1.6,0,0,1-.39,1.11,1.91,1.91,0,0,1-1.09.6v0a2.1,2.1,0,0,1,1.26.52,1.51,1.51,0,0,1,.43,1.12,1.86,1.86,0,0,1-.72,1.56,3.29,3.29,0,0,1-2,.54,4.65,4.65,0,0,1-2-.37v-1a4.48,4.48,0,0,0,.95.34,4.07,4.07,0,0,0,1,.12,2,2,0,0,0,1.21-.3,1.08,1.08,0,0,0,.41-.93.89.89,0,0,0-.45-.83,2.92,2.92,0,0,0-1.4-.26h-.61v-.92h.62c1.12,0,1.68-.38,1.68-1.16a.85.85,0,0,0-.29-.69,1.37,1.37,0,0,0-.87-.25,2.42,2.42,0,0,0-.76.12,3.41,3.41,0,0,0-.88.44l-.55-.79a3.69,3.69,0,0,1,2.24-.71,2.59,2.59,0,0,1,1.65.46A1.48,1.48,0,0,1,274.94,249.29Z" transform="translate(0.25 -167.41)"/><path class="f" d="M280.81,251.18a5,5,0,0,1-.59,2.72,2,2,0,0,1-1.8.88,2,2,0,0,1-1.77-.91,4.94,4.94,0,0,1-.6-2.69,5,5,0,0,1,.58-2.73,2.22,2.22,0,0,1,3.57,0A4.85,4.85,0,0,1,280.81,251.18Zm-3.62,0a5.25,5.25,0,0,0,.29,2,1,1,0,0,0,1.89,0,7.05,7.05,0,0,0,0-4.07,1,1,0,0,0-1.89,0A5.32,5.32,0,0,0,277.19,251.18Z" transform="translate(0.25 -167.41)"/><path class="f" d="M286.41,251.18a5,5,0,0,1-.59,2.72,2.23,2.23,0,0,1-3.57,0,6.47,6.47,0,0,1,0-5.42,2.21,2.21,0,0,1,3.56,0A4.85,4.85,0,0,1,286.41,251.18Zm-3.62,0a5.25,5.25,0,0,0,.29,2,1,1,0,0,0,.95.61,1,1,0,0,0,.94-.62,7.05,7.05,0,0,0,0-4.07,1,1,0,0,0-1.89,0A5.32,5.32,0,0,0,282.79,251.18Z" transform="translate(0.25 -167.41)"/><path class="f" d="M291.75,249.29a1.6,1.6,0,0,1-.39,1.11,1.91,1.91,0,0,1-1.09.6v0a2.1,2.1,0,0,1,1.26.52,1.51,1.51,0,0,1,.43,1.12,1.86,1.86,0,0,1-.72,1.56,3.31,3.31,0,0,1-2,.54,4.65,4.65,0,0,1-2-.37v-1a4.48,4.48,0,0,0,.95.34,4.07,4.07,0,0,0,1,.12,2,2,0,0,0,1.21-.3,1.08,1.08,0,0,0,.41-.93.89.89,0,0,0-.45-.83,2.92,2.92,0,0,0-1.4-.26h-.61v-.92h.62c1.12,0,1.68-.38,1.68-1.16a.85.85,0,0,0-.29-.69,1.37,1.37,0,0,0-.87-.25,2.42,2.42,0,0,0-.76.12,3.41,3.41,0,0,0-.88.44l-.55-.79a3.69,3.69,0,0,1,2.24-.71,2.59,2.59,0,0,1,1.65.46A1.48,1.48,0,0,1,291.75,249.29Z" transform="translate(0.25 -167.41)"/><path class="f" d="M295.23,247.59a2.46,2.46,0,0,1,1.58.46,1.46,1.46,0,0,1,.58,1.22A1.93,1.93,0,0,1,296.1,251a3.17,3.17,0,0,1,1.17.87,1.63,1.63,0,0,1,.35,1,1.72,1.72,0,0,1-.64,1.39,2.64,2.64,0,0,1-1.73.52,2.87,2.87,0,0,1-1.77-.48,1.68,1.68,0,0,1-.62-1.39,1.83,1.83,0,0,1,.32-1,2.75,2.75,0,0,1,1.08-.83,2.73,2.73,0,0,1-.91-.81,1.71,1.71,0,0,1-.28-1,1.45,1.45,0,0,1,.6-1.22A2.53,2.53,0,0,1,295.23,247.59Zm-1.3,5.28a.94.94,0,0,0,.36.78,1.48,1.48,0,0,0,.94.27,1.43,1.43,0,0,0,1-.28,1,1,0,0,0,.35-.78,1,1,0,0,0-.32-.71,3,3,0,0,0-1-.59l-.14-.06a2.48,2.48,0,0,0-.91.61A1.17,1.17,0,0,0,293.93,252.87Zm1.29-4.41a1.24,1.24,0,0,0-.77.23.81.81,0,0,0-.29.65,1,1,0,0,0,.11.45,1.1,1.1,0,0,0,.3.35,3.64,3.64,0,0,0,.68.39,2.23,2.23,0,0,0,.82-.54,1,1,0,0,0,.23-.65.81.81,0,0,0-.29-.65A1.28,1.28,0,0,0,295.22,248.46Z" transform="translate(0.25 -167.41)"/><rect class="i" x="227.71" y="104.15" width="65.44" height="26.18"/><path class="j" d="M242.3,287.55h-1.88l-4.59-7.44h-.05l0,.41c.06.8.09,1.52.09,2.18v4.85h-1.39v-9.34h1.86l4.58,7.41h0c0-.1,0-.46-.06-1.07s0-1.1,0-1.45v-4.89h1.4Z" transform="translate(0.25 -167.41)"/><path class="j" d="M250.87,284a3.83,3.83,0,0,1-.89,2.7,3.16,3.16,0,0,1-2.47,1,3.38,3.38,0,0,1-1.75-.45,2.91,2.91,0,0,1-1.17-1.28,4.43,4.43,0,0,1-.41-1.94,3.87,3.87,0,0,1,.88-2.69,3.22,3.22,0,0,1,2.49-1,3.15,3.15,0,0,1,2.43,1A3.86,3.86,0,0,1,250.87,284Zm-5.14,0c0,1.63.6,2.44,1.81,2.44s1.79-.81,1.79-2.44-.6-2.43-1.81-2.43a1.54,1.54,0,0,0-1.37.63A3.24,3.24,0,0,0,245.73,284Z" transform="translate(0.25 -167.41)"/><path class="j" d="M255,287.68a2.45,2.45,0,0,1-2.06-1,5.25,5.25,0,0,1,0-5.39,2.47,2.47,0,0,1,2.08-1,2.43,2.43,0,0,1,2.12,1h.08a8,8,0,0,1-.11-1.21v-2.57h1.51v9.94h-1.18l-.26-.92h-.07A2.41,2.41,0,0,1,255,287.68Zm.4-1.21a1.66,1.66,0,0,0,1.35-.52,2.77,2.77,0,0,0,.44-1.7V284a3.12,3.12,0,0,0-.44-1.89,1.6,1.6,0,0,0-1.36-.57,1.39,1.39,0,0,0-1.22.65,3.3,3.3,0,0,0-.43,1.83,3.18,3.18,0,0,0,.42,1.79A1.4,1.4,0,0,0,255.38,286.47Z" transform="translate(0.25 -167.41)"/><path class="j" d="M263.84,287.68a3.42,3.42,0,0,1-2.58-1,3.66,3.66,0,0,1-.93-2.65,4,4,0,0,1,.86-2.72,3,3,0,0,1,2.37-1,2.92,2.92,0,0,1,2.22.85,3.23,3.23,0,0,1,.81,2.34v.81h-4.71a2.32,2.32,0,0,0,.55,1.58,1.93,1.93,0,0,0,1.48.55,5.39,5.39,0,0,0,1.17-.12,6.59,6.59,0,0,0,1.16-.39v1.22a4.33,4.33,0,0,1-1.12.37A6.94,6.94,0,0,1,263.84,287.68Zm-.28-6.19a1.52,1.52,0,0,0-1.14.46,2.16,2.16,0,0,0-.52,1.32h3.21a2,2,0,0,0-.42-1.33A1.45,1.45,0,0,0,263.56,281.49Z" transform="translate(0.25 -167.41)"/><path class="j" d="M277.53,287.55H271.2v-1.13l2.4-2.43a18,18,0,0,0,1.42-1.55,3.79,3.79,0,0,0,.51-.86,2.39,2.39,0,0,0,.16-.86,1.35,1.35,0,0,0-.38-1,1.49,1.49,0,0,0-1.05-.36,2.83,2.83,0,0,0-1,.2,4.83,4.83,0,0,0-1.16.71l-.81-1a5.11,5.11,0,0,1,1.51-.93,4.5,4.5,0,0,1,1.57-.27,3.06,3.06,0,0,1,2.09.68,2.3,2.3,0,0,1,.78,1.83,3.23,3.23,0,0,1-.22,1.2,5.24,5.24,0,0,1-.7,1.17,15.06,15.06,0,0,1-1.56,1.63l-1.63,1.58v.06h4.44Z" transform="translate(0.25 -167.41)"/><path class="f" d="M228.65,312h-1.4l-3.45-5.59h0l0,.31c0,.6.06,1.14.06,1.63V312h-1v-7h1.39l3.44,5.55h0c0-.07,0-.34,0-.8s0-.82,0-1.08V305h1.05Z" transform="translate(0.25 -167.41)"/><path class="f" d="M235.08,309.3a2.89,2.89,0,0,1-.66,2,2.38,2.38,0,0,1-1.86.73,2.58,2.58,0,0,1-1.31-.33,2.3,2.3,0,0,1-.88-1,3.32,3.32,0,0,1-.3-1.45,2.91,2.91,0,0,1,.66-2,2.4,2.4,0,0,1,1.86-.72,2.33,2.33,0,0,1,1.82.74A2.85,2.85,0,0,1,235.08,309.3Zm-3.85,0q0,1.83,1.35,1.83c.9,0,1.34-.61,1.34-1.83s-.45-1.82-1.35-1.82a1.18,1.18,0,0,0-1,.47A2.41,2.41,0,0,0,231.23,309.3Z" transform="translate(0.25 -167.41)"/><path class="f" d="M238.17,312.05a1.84,1.84,0,0,1-1.55-.72,3.89,3.89,0,0,1,0-4,2,2,0,0,1,3.15,0h.05a7.5,7.5,0,0,1-.08-.9V304.5h1.13V312H240l-.19-.7h-.06A1.79,1.79,0,0,1,238.17,312.05Zm.3-.91a1.23,1.23,0,0,0,1-.39,2.08,2.08,0,0,0,.33-1.27v-.16a2.35,2.35,0,0,0-.33-1.42,1.22,1.22,0,0,0-1-.42,1,1,0,0,0-.92.48,3.09,3.09,0,0,0,0,2.72A1.05,1.05,0,0,0,238.47,311.14Z" transform="translate(0.25 -167.41)"/><path class="f" d="M244.81,312.05a2.54,2.54,0,0,1-1.93-.72,2.71,2.71,0,0,1-.7-2,3,3,0,0,1,.64-2,2.27,2.27,0,0,1,1.78-.74,2.16,2.16,0,0,1,1.66.64,2.41,2.41,0,0,1,.61,1.75v.61h-3.53a1.74,1.74,0,0,0,.41,1.19,1.5,1.5,0,0,0,1.11.41,4,4,0,0,0,.88-.09,5.21,5.21,0,0,0,.87-.29v.91a3.46,3.46,0,0,1-.84.28A5.47,5.47,0,0,1,244.81,312.05Zm-.21-4.64a1.18,1.18,0,0,0-.86.34,1.66,1.66,0,0,0-.38,1h2.4a1.48,1.48,0,0,0-.31-1A1.09,1.09,0,0,0,244.6,307.41Z" transform="translate(0.25 -167.41)"/><path class="f" d="M252.91,307.07a2,2,0,0,1-.72,1.68,3.17,3.17,0,0,1-2.05.58h-.72V312h-1.15v-7h2a3.07,3.07,0,0,1,2,.54A1.92,1.92,0,0,1,252.91,307.07Zm-3.49,1.3h.6a2.17,2.17,0,0,0,1.3-.31,1.11,1.11,0,0,0,.41-.95,1.09,1.09,0,0,0-.37-.91,1.87,1.87,0,0,0-1.15-.29h-.79Z" transform="translate(0.25 -167.41)"/><path class="f" d="M258.89,309.3a2.85,2.85,0,0,1-.67,2,2.36,2.36,0,0,1-1.85.73,2.58,2.58,0,0,1-1.31-.33,2.24,2.24,0,0,1-.88-1,3.33,3.33,0,0,1-.31-1.45,2.91,2.91,0,0,1,.66-2,2.43,2.43,0,0,1,1.87-.72,2.34,2.34,0,0,1,1.82.74A2.85,2.85,0,0,1,258.89,309.3Zm-3.86,0c0,1.22.46,1.83,1.36,1.83s1.34-.61,1.34-1.83-.45-1.82-1.35-1.82a1.16,1.16,0,0,0-1,.47A2.4,2.4,0,0,0,255,309.3Z" transform="translate(0.25 -167.41)"/><path class="f" d="M262.88,306.56a2.9,2.9,0,0,1,.56.05l-.11,1.05a2.07,2.07,0,0,0-.5-.06,1.47,1.47,0,0,0-1.1.44,1.6,1.6,0,0,0-.42,1.15V312h-1.12v-5.3h.88l.15.93h0a2.09,2.09,0,0,1,.69-.75A1.63,1.63,0,0,1,262.88,306.56Z" transform="translate(0.25 -167.41)"/><path class="f" d="M266.39,311.14a2.66,2.66,0,0,0,.83-.13v.85a2.31,2.31,0,0,1-.48.14,4.1,4.1,0,0,1-.62.05c-1.06,0-1.6-.56-1.6-1.69v-2.85h-.72V307l.78-.41.38-1.12h.7v1.18h1.51v.85h-1.51v2.84a.78.78,0,0,0,.2.6A.73.73,0,0,0,266.39,311.14Z" transform="translate(0.25 -167.41)"/><path class="f" d="M274.94,306.56a1.64,1.64,0,0,1-.39,1.11,2,2,0,0,1-1.09.6v0a2.1,2.1,0,0,1,1.26.53,1.51,1.51,0,0,1,.43,1.11,1.83,1.83,0,0,1-.72,1.56,3.23,3.23,0,0,1-2,.55,4.5,4.5,0,0,1-2-.38v-1a4.48,4.48,0,0,0,.95.34,4.07,4.07,0,0,0,1,.12,2,2,0,0,0,1.21-.3,1.09,1.09,0,0,0,.41-.94.89.89,0,0,0-.45-.82,2.8,2.8,0,0,0-1.4-.26h-.61v-.92h.62c1.12,0,1.68-.39,1.68-1.16a.85.85,0,0,0-.29-.69,1.31,1.31,0,0,0-.87-.25,2.74,2.74,0,0,0-.76.11,4.21,4.21,0,0,0-.88.44l-.55-.78a3.63,3.63,0,0,1,2.24-.71,2.65,2.65,0,0,1,1.65.45A1.51,1.51,0,0,1,274.94,306.56Z" transform="translate(0.25 -167.41)"/><path class="f" d="M280.81,308.45a5,5,0,0,1-.59,2.72,2,2,0,0,1-1.8.88,2,2,0,0,1-1.77-.91,4.94,4.94,0,0,1-.6-2.69,5,5,0,0,1,.58-2.73,2,2,0,0,1,1.79-.88,2,2,0,0,1,1.78.92A4.85,4.85,0,0,1,280.81,308.45Zm-3.62,0a5.25,5.25,0,0,0,.29,2.05,1,1,0,0,0,.94.61,1,1,0,0,0,.95-.62,7.09,7.09,0,0,0,0-4.08,1,1,0,0,0-1.89,0A5.29,5.29,0,0,0,277.19,308.45Z" transform="translate(0.25 -167.41)"/><path class="f" d="M286.41,308.45a5,5,0,0,1-.59,2.72,2.23,2.23,0,0,1-3.57,0,6.47,6.47,0,0,1,0-5.42,2,2,0,0,1,1.79-.88,2,2,0,0,1,1.77.92A4.85,4.85,0,0,1,286.41,308.45Zm-3.62,0a5.25,5.25,0,0,0,.29,2.05,1,1,0,0,0,1.89,0,7.09,7.09,0,0,0,0-4.08,1,1,0,0,0-.94-.63,1,1,0,0,0-.95.62A5.29,5.29,0,0,0,282.79,308.45Z" transform="translate(0.25 -167.41)"/><path class="f" d="M291.75,306.56a1.64,1.64,0,0,1-.39,1.11,2,2,0,0,1-1.09.6v0a2.1,2.1,0,0,1,1.26.53,1.51,1.51,0,0,1,.43,1.11,1.83,1.83,0,0,1-.72,1.56,3.25,3.25,0,0,1-2,.55,4.5,4.5,0,0,1-2-.38v-1a4.48,4.48,0,0,0,.95.34,4.07,4.07,0,0,0,1,.12,2,2,0,0,0,1.21-.3,1.09,1.09,0,0,0,.41-.94.89.89,0,0,0-.45-.82,2.8,2.8,0,0,0-1.4-.26h-.61v-.92h.62c1.12,0,1.68-.39,1.68-1.16a.85.85,0,0,0-.29-.69,1.31,1.31,0,0,0-.87-.25,2.74,2.74,0,0,0-.76.11,4.21,4.21,0,0,0-.88.44l-.55-.78a3.63,3.63,0,0,1,2.24-.71,2.65,2.65,0,0,1,1.65.45A1.51,1.51,0,0,1,291.75,306.56Z" transform="translate(0.25 -167.41)"/><path class="f" d="M295.23,304.86a2.46,2.46,0,0,1,1.58.46,1.46,1.46,0,0,1,.58,1.22,1.93,1.93,0,0,1-1.29,1.72,3.28,3.28,0,0,1,1.17.86,1.68,1.68,0,0,1,.35,1,1.72,1.72,0,0,1-.64,1.39,2.64,2.64,0,0,1-1.73.52,2.8,2.8,0,0,1-1.77-.49,1.65,1.65,0,0,1-.62-1.38,1.83,1.83,0,0,1,.32-1.05,2.76,2.76,0,0,1,1.08-.84,2.54,2.54,0,0,1-.91-.81,1.66,1.66,0,0,1-.28-1,1.45,1.45,0,0,1,.6-1.22A2.53,2.53,0,0,1,295.23,304.86Zm-1.3,5.28a.91.91,0,0,0,.36.77,1.73,1.73,0,0,0,1.9,0,.94.94,0,0,0,.35-.77,1,1,0,0,0-.32-.71,3,3,0,0,0-1-.59l-.14-.07a2.49,2.49,0,0,0-.91.62A1.17,1.17,0,0,0,293.93,310.14Zm1.29-4.42a1.18,1.18,0,0,0-.77.24.8.8,0,0,0-.29.65.93.93,0,0,0,.11.44,1.25,1.25,0,0,0,.3.36,3.64,3.64,0,0,0,.68.39,2.23,2.23,0,0,0,.82-.54,1,1,0,0,0,.23-.65A.8.8,0,0,0,296,306,1.22,1.22,0,0,0,295.22,305.72Z" transform="translate(0.25 -167.41)"/><polygon class="j" points="216.17 116.8 211.7 109.95 210.16 114.18 164.63 97.61 164.35 98.37 209.88 114.94 208.34 119.17 216.17 116.8"/><polygon class="j" points="387.61 88.58 381.07 83.67 381.07 88.17 350.62 88.17 350.62 88.98 381.07 88.98 381.07 93.48 387.61 88.58"/><polygon class="j" points="385.52 125.85 381.05 119 379.51 123.22 350.89 112.81 350.62 113.58 379.23 123.99 377.69 128.22 385.52 125.85"/><polygon class="j" points="385.52 49.05 381.05 55.9 379.51 51.67 350.89 62.09 350.62 61.32 379.23 50.91 377.69 46.68 385.52 49.05"/><polygon class="j" points="216.17 61.95 211.7 68.8 210.16 64.57 164.63 81.14 164.35 80.37 209.88 63.8 208.34 59.57 216.17 61.95"/><polygon class="j" points="96.98 91.51 90.44 86.6 90.44 91.1 43.62 91.1 43.62 91.92 90.44 91.92 90.44 96.42 96.98 91.51"/></svg>